%TF.GenerationSoftware,KiCad,Pcbnew,(6.0.7)*%
%TF.CreationDate,2023-03-31T20:18:19-04:00*%
%TF.ProjectId,mwap_circuit,6d776170-5f63-4697-9263-7569742e6b69,rev?*%
%TF.SameCoordinates,Original*%
%TF.FileFunction,Soldermask,Top*%
%TF.FilePolarity,Negative*%
%FSLAX46Y46*%
G04 Gerber Fmt 4.6, Leading zero omitted, Abs format (unit mm)*
G04 Created by KiCad (PCBNEW (6.0.7)) date 2023-03-31 20:18:19*
%MOMM*%
%LPD*%
G01*
G04 APERTURE LIST*
G04 Aperture macros list*
%AMRoundRect*
0 Rectangle with rounded corners*
0 $1 Rounding radius*
0 $2 $3 $4 $5 $6 $7 $8 $9 X,Y pos of 4 corners*
0 Add a 4 corners polygon primitive as box body*
4,1,4,$2,$3,$4,$5,$6,$7,$8,$9,$2,$3,0*
0 Add four circle primitives for the rounded corners*
1,1,$1+$1,$2,$3*
1,1,$1+$1,$4,$5*
1,1,$1+$1,$6,$7*
1,1,$1+$1,$8,$9*
0 Add four rect primitives between the rounded corners*
20,1,$1+$1,$2,$3,$4,$5,0*
20,1,$1+$1,$4,$5,$6,$7,0*
20,1,$1+$1,$6,$7,$8,$9,0*
20,1,$1+$1,$8,$9,$2,$3,0*%
G04 Aperture macros list end*
%ADD10R,3.500000X1.700000*%
%ADD11O,1.700000X1.700000*%
%ADD12R,1.700000X1.700000*%
%ADD13R,1.700000X3.500000*%
%ADD14O,1.800000X1.800000*%
%ADD15O,1.500000X1.500000*%
%ADD16C,2.400000*%
%ADD17O,2.400000X2.400000*%
%ADD18O,1.500000X1.050000*%
%ADD19R,1.500000X1.050000*%
%ADD20RoundRect,0.250000X0.750000X-0.600000X0.750000X0.600000X-0.750000X0.600000X-0.750000X-0.600000X0*%
%ADD21O,2.000000X1.700000*%
%ADD22C,1.600000*%
G04 APERTURE END LIST*
D10*
%TO.C,U1*%
X135505000Y-111905000D03*
D11*
X134605000Y-111905000D03*
X134605000Y-109365000D03*
D10*
X135505000Y-109365000D03*
X135505000Y-106825000D03*
D12*
X134605000Y-106825000D03*
D10*
X135505000Y-104285000D03*
D11*
X134605000Y-104285000D03*
D10*
X135505000Y-101745000D03*
D11*
X134605000Y-101745000D03*
D10*
X135505000Y-99205000D03*
D11*
X134605000Y-99205000D03*
X134605000Y-96665000D03*
D10*
X135505000Y-96665000D03*
D12*
X134605000Y-94125000D03*
D10*
X135505000Y-94125000D03*
D11*
X134605000Y-91585000D03*
D10*
X135505000Y-91585000D03*
D11*
X134605000Y-89045000D03*
D10*
X135505000Y-89045000D03*
X135505000Y-86505000D03*
D11*
X134605000Y-86505000D03*
X134605000Y-83965000D03*
D10*
X135505000Y-83965000D03*
D12*
X134605000Y-81425000D03*
D10*
X135505000Y-81425000D03*
X135505000Y-78885000D03*
D11*
X134605000Y-78885000D03*
X134605000Y-76345000D03*
D10*
X135505000Y-76345000D03*
D11*
X134605000Y-73805000D03*
D10*
X135505000Y-73805000D03*
D11*
X134605000Y-71265000D03*
D10*
X135505000Y-71265000D03*
D12*
X134605000Y-68725000D03*
D10*
X135505000Y-68725000D03*
X135505000Y-66185000D03*
D11*
X134605000Y-66185000D03*
D10*
X135505000Y-63645000D03*
D11*
X134605000Y-63645000D03*
D13*
X125715000Y-112575000D03*
D12*
X125715000Y-111675000D03*
D14*
X122990000Y-63775000D03*
X128440000Y-63775000D03*
D15*
X128140000Y-66805000D03*
X123290000Y-66805000D03*
D10*
X115925000Y-111905000D03*
D11*
X116825000Y-111905000D03*
X116825000Y-109365000D03*
D10*
X115925000Y-109365000D03*
X115925000Y-106825000D03*
D12*
X116825000Y-106825000D03*
D10*
X115925000Y-104285000D03*
D11*
X116825000Y-104285000D03*
D10*
X115925000Y-101745000D03*
D11*
X116825000Y-101745000D03*
D10*
X115925000Y-99205000D03*
D11*
X116825000Y-99205000D03*
D10*
X115925000Y-96665000D03*
D11*
X116825000Y-96665000D03*
D12*
X116825000Y-94125000D03*
D10*
X115925000Y-94125000D03*
D11*
X116825000Y-91585000D03*
D10*
X115925000Y-91585000D03*
X115925000Y-89045000D03*
D11*
X116825000Y-89045000D03*
X116825000Y-86505000D03*
D10*
X115925000Y-86505000D03*
D11*
X116825000Y-83965000D03*
D10*
X115925000Y-83965000D03*
X115925000Y-81425000D03*
D12*
X116825000Y-81425000D03*
D11*
X116825000Y-78885000D03*
D10*
X115925000Y-78885000D03*
X115925000Y-76345000D03*
D11*
X116825000Y-76345000D03*
D10*
X115925000Y-73805000D03*
D11*
X116825000Y-73805000D03*
D10*
X115925000Y-71265000D03*
D11*
X116825000Y-71265000D03*
D12*
X116825000Y-68725000D03*
D10*
X115925000Y-68725000D03*
X115925000Y-66185000D03*
D11*
X116825000Y-66185000D03*
X116825000Y-63645000D03*
D10*
X115925000Y-63645000D03*
D13*
X123175000Y-112575000D03*
D11*
X123175000Y-111675000D03*
D13*
X128255000Y-112575000D03*
D11*
X128255000Y-111675000D03*
%TD*%
D16*
%TO.C,RF1*%
X107000000Y-81380000D03*
D17*
X107000000Y-96620000D03*
%TD*%
D16*
%TO.C,RE1*%
X129000000Y-122150000D03*
D17*
X113760000Y-122150000D03*
%TD*%
D16*
%TO.C,RC1*%
X113760000Y-117500000D03*
D17*
X129000000Y-117500000D03*
%TD*%
D16*
%TO.C,R2*%
X101750000Y-122750000D03*
D17*
X101750000Y-107510000D03*
%TD*%
D16*
%TO.C,R1*%
X107000000Y-122750000D03*
D17*
X107000000Y-107510000D03*
%TD*%
D18*
%TO.C,Q1*%
X134850000Y-118230000D03*
X134850000Y-119500000D03*
D19*
X134850000Y-120770000D03*
%TD*%
D12*
%TO.C,J6*%
X101750000Y-92575000D03*
D11*
X101750000Y-95115000D03*
%TD*%
%TO.C,J5*%
X144000000Y-109780000D03*
X144000000Y-107240000D03*
X144000000Y-104700000D03*
X144000000Y-102160000D03*
X144000000Y-99620000D03*
X144000000Y-97080000D03*
X144000000Y-94540000D03*
D12*
X144000000Y-92000000D03*
%TD*%
%TO.C,J4*%
X144000000Y-64850000D03*
D11*
X144000000Y-67390000D03*
X144000000Y-69930000D03*
X144000000Y-72470000D03*
X144000000Y-75010000D03*
X144000000Y-77550000D03*
X144000000Y-80090000D03*
X144000000Y-82630000D03*
X144000000Y-85170000D03*
%TD*%
%TO.C,J3*%
X101750000Y-77285000D03*
D12*
X101750000Y-79825000D03*
%TD*%
%TO.C,J2*%
X101750000Y-87475000D03*
D11*
X101750000Y-84935000D03*
%TD*%
D20*
%TO.C,J1*%
X107000000Y-69250000D03*
D21*
X107000000Y-66750000D03*
%TD*%
D22*
%TO.C,CF2*%
X107000000Y-99500000D03*
X107000000Y-104500000D03*
%TD*%
%TO.C,CF1*%
X101750000Y-104500000D03*
X101750000Y-99500000D03*
%TD*%
M02*
