%TF.GenerationSoftware,KiCad,Pcbnew,(6.0.7)*%
%TF.CreationDate,2023-03-31T20:18:19-04:00*%
%TF.ProjectId,mwap_circuit,6d776170-5f63-4697-9263-7569742e6b69,rev?*%
%TF.SameCoordinates,Original*%
%TF.FileFunction,Legend,Top*%
%TF.FilePolarity,Positive*%
%FSLAX46Y46*%
G04 Gerber Fmt 4.6, Leading zero omitted, Abs format (unit mm)*
G04 Created by KiCad (PCBNEW (6.0.7)) date 2023-03-31 20:18:19*
%MOMM*%
%LPD*%
G01*
G04 APERTURE LIST*
%ADD10C,0.150000*%
%ADD11C,0.120000*%
G04 APERTURE END LIST*
D10*
X151428571Y-121147380D02*
X151761904Y-122147380D01*
X152095238Y-121147380D01*
X152285714Y-121147380D02*
X152857142Y-121147380D01*
X152571428Y-122147380D02*
X152571428Y-121147380D01*
X153952380Y-122147380D02*
X153952380Y-121147380D01*
X154523809Y-122147380D01*
X154523809Y-121147380D01*
X155000000Y-121623571D02*
X155333333Y-121623571D01*
X155476190Y-122147380D02*
X155000000Y-122147380D01*
X155000000Y-121147380D01*
X155476190Y-121147380D01*
X156238095Y-121623571D02*
X156380952Y-121671190D01*
X156428571Y-121718809D01*
X156476190Y-121814047D01*
X156476190Y-121956904D01*
X156428571Y-122052142D01*
X156380952Y-122099761D01*
X156285714Y-122147380D01*
X155904761Y-122147380D01*
X155904761Y-121147380D01*
X156238095Y-121147380D01*
X156333333Y-121195000D01*
X156380952Y-121242619D01*
X156428571Y-121337857D01*
X156428571Y-121433095D01*
X156380952Y-121528333D01*
X156333333Y-121575952D01*
X156238095Y-121623571D01*
X155904761Y-121623571D01*
X156904761Y-122147380D02*
X156904761Y-121147380D01*
X157285714Y-121147380D01*
X157380952Y-121195000D01*
X157428571Y-121242619D01*
X157476190Y-121337857D01*
X157476190Y-121480714D01*
X157428571Y-121575952D01*
X157380952Y-121623571D01*
X157285714Y-121671190D01*
X156904761Y-121671190D01*
X140261904Y-123757380D02*
X140261904Y-122757380D01*
X140595238Y-123471666D01*
X140928571Y-122757380D01*
X140928571Y-123757380D01*
X141785714Y-123709761D02*
X141690476Y-123757380D01*
X141500000Y-123757380D01*
X141404761Y-123709761D01*
X141357142Y-123614523D01*
X141357142Y-123233571D01*
X141404761Y-123138333D01*
X141500000Y-123090714D01*
X141690476Y-123090714D01*
X141785714Y-123138333D01*
X141833333Y-123233571D01*
X141833333Y-123328809D01*
X141357142Y-123424047D01*
X142690476Y-123709761D02*
X142595238Y-123757380D01*
X142404761Y-123757380D01*
X142309523Y-123709761D01*
X142261904Y-123662142D01*
X142214285Y-123566904D01*
X142214285Y-123281190D01*
X142261904Y-123185952D01*
X142309523Y-123138333D01*
X142404761Y-123090714D01*
X142595238Y-123090714D01*
X142690476Y-123138333D01*
X143119047Y-123757380D02*
X143119047Y-122757380D01*
X143547619Y-123757380D02*
X143547619Y-123233571D01*
X143500000Y-123138333D01*
X143404761Y-123090714D01*
X143261904Y-123090714D01*
X143166666Y-123138333D01*
X143119047Y-123185952D01*
X144452380Y-123757380D02*
X144452380Y-123233571D01*
X144404761Y-123138333D01*
X144309523Y-123090714D01*
X144119047Y-123090714D01*
X144023809Y-123138333D01*
X144452380Y-123709761D02*
X144357142Y-123757380D01*
X144119047Y-123757380D01*
X144023809Y-123709761D01*
X143976190Y-123614523D01*
X143976190Y-123519285D01*
X144023809Y-123424047D01*
X144119047Y-123376428D01*
X144357142Y-123376428D01*
X144452380Y-123328809D01*
X144928571Y-123090714D02*
X144928571Y-123757380D01*
X144928571Y-123185952D02*
X144976190Y-123138333D01*
X145071428Y-123090714D01*
X145214285Y-123090714D01*
X145309523Y-123138333D01*
X145357142Y-123233571D01*
X145357142Y-123757380D01*
X145833333Y-123757380D02*
X145833333Y-123090714D01*
X145833333Y-122757380D02*
X145785714Y-122805000D01*
X145833333Y-122852619D01*
X145880952Y-122805000D01*
X145833333Y-122757380D01*
X145833333Y-122852619D01*
X146738095Y-123709761D02*
X146642857Y-123757380D01*
X146452380Y-123757380D01*
X146357142Y-123709761D01*
X146309523Y-123662142D01*
X146261904Y-123566904D01*
X146261904Y-123281190D01*
X146309523Y-123185952D01*
X146357142Y-123138333D01*
X146452380Y-123090714D01*
X146642857Y-123090714D01*
X146738095Y-123138333D01*
X147595238Y-123757380D02*
X147595238Y-123233571D01*
X147547619Y-123138333D01*
X147452380Y-123090714D01*
X147261904Y-123090714D01*
X147166666Y-123138333D01*
X147595238Y-123709761D02*
X147500000Y-123757380D01*
X147261904Y-123757380D01*
X147166666Y-123709761D01*
X147119047Y-123614523D01*
X147119047Y-123519285D01*
X147166666Y-123424047D01*
X147261904Y-123376428D01*
X147500000Y-123376428D01*
X147595238Y-123328809D01*
X148214285Y-123757380D02*
X148119047Y-123709761D01*
X148071428Y-123614523D01*
X148071428Y-122757380D01*
X149261904Y-122757380D02*
X149500000Y-123757380D01*
X149690476Y-123043095D01*
X149880952Y-123757380D01*
X150119047Y-122757380D01*
X150928571Y-123757380D02*
X150928571Y-123233571D01*
X150880952Y-123138333D01*
X150785714Y-123090714D01*
X150595238Y-123090714D01*
X150500000Y-123138333D01*
X150928571Y-123709761D02*
X150833333Y-123757380D01*
X150595238Y-123757380D01*
X150500000Y-123709761D01*
X150452380Y-123614523D01*
X150452380Y-123519285D01*
X150500000Y-123424047D01*
X150595238Y-123376428D01*
X150833333Y-123376428D01*
X150928571Y-123328809D01*
X151309523Y-123090714D02*
X151547619Y-123757380D01*
X151785714Y-123090714D01*
X152547619Y-123709761D02*
X152452380Y-123757380D01*
X152261904Y-123757380D01*
X152166666Y-123709761D01*
X152119047Y-123614523D01*
X152119047Y-123233571D01*
X152166666Y-123138333D01*
X152261904Y-123090714D01*
X152452380Y-123090714D01*
X152547619Y-123138333D01*
X152595238Y-123233571D01*
X152595238Y-123328809D01*
X152119047Y-123424047D01*
X153738095Y-123471666D02*
X154214285Y-123471666D01*
X153642857Y-123757380D02*
X153976190Y-122757380D01*
X154309523Y-123757380D01*
X154785714Y-123757380D02*
X154690476Y-123709761D01*
X154642857Y-123614523D01*
X154642857Y-122757380D01*
X155023809Y-123090714D02*
X155404761Y-123090714D01*
X155166666Y-122757380D02*
X155166666Y-123614523D01*
X155214285Y-123709761D01*
X155309523Y-123757380D01*
X155404761Y-123757380D01*
X155738095Y-123757380D02*
X155738095Y-123090714D01*
X155738095Y-122757380D02*
X155690476Y-122805000D01*
X155738095Y-122852619D01*
X155785714Y-122805000D01*
X155738095Y-122757380D01*
X155738095Y-122852619D01*
X156071428Y-123090714D02*
X156452380Y-123090714D01*
X156214285Y-122757380D02*
X156214285Y-123614523D01*
X156261904Y-123709761D01*
X156357142Y-123757380D01*
X156452380Y-123757380D01*
X157214285Y-123090714D02*
X157214285Y-123757380D01*
X156785714Y-123090714D02*
X156785714Y-123614523D01*
X156833333Y-123709761D01*
X156928571Y-123757380D01*
X157071428Y-123757380D01*
X157166666Y-123709761D01*
X157214285Y-123662142D01*
X158119047Y-123757380D02*
X158119047Y-122757380D01*
X158119047Y-123709761D02*
X158023809Y-123757380D01*
X157833333Y-123757380D01*
X157738095Y-123709761D01*
X157690476Y-123662142D01*
X157642857Y-123566904D01*
X157642857Y-123281190D01*
X157690476Y-123185952D01*
X157738095Y-123138333D01*
X157833333Y-123090714D01*
X158023809Y-123090714D01*
X158119047Y-123138333D01*
X158976190Y-123709761D02*
X158880952Y-123757380D01*
X158690476Y-123757380D01*
X158595238Y-123709761D01*
X158547619Y-123614523D01*
X158547619Y-123233571D01*
X158595238Y-123138333D01*
X158690476Y-123090714D01*
X158880952Y-123090714D01*
X158976190Y-123138333D01*
X159023809Y-123233571D01*
X159023809Y-123328809D01*
X158547619Y-123424047D01*
X160214285Y-123757380D02*
X160214285Y-122757380D01*
X160595238Y-122757380D01*
X160690476Y-122805000D01*
X160738095Y-122852619D01*
X160785714Y-122947857D01*
X160785714Y-123090714D01*
X160738095Y-123185952D01*
X160690476Y-123233571D01*
X160595238Y-123281190D01*
X160214285Y-123281190D01*
X161214285Y-123757380D02*
X161214285Y-123090714D01*
X161214285Y-123281190D02*
X161261904Y-123185952D01*
X161309523Y-123138333D01*
X161404761Y-123090714D01*
X161500000Y-123090714D01*
X161976190Y-123757380D02*
X161880952Y-123709761D01*
X161833333Y-123662142D01*
X161785714Y-123566904D01*
X161785714Y-123281190D01*
X161833333Y-123185952D01*
X161880952Y-123138333D01*
X161976190Y-123090714D01*
X162119047Y-123090714D01*
X162214285Y-123138333D01*
X162261904Y-123185952D01*
X162309523Y-123281190D01*
X162309523Y-123566904D01*
X162261904Y-123662142D01*
X162214285Y-123709761D01*
X162119047Y-123757380D01*
X161976190Y-123757380D01*
X162738095Y-123090714D02*
X162738095Y-124090714D01*
X162738095Y-123138333D02*
X162833333Y-123090714D01*
X163023809Y-123090714D01*
X163119047Y-123138333D01*
X163166666Y-123185952D01*
X163214285Y-123281190D01*
X163214285Y-123566904D01*
X163166666Y-123662142D01*
X163119047Y-123709761D01*
X163023809Y-123757380D01*
X162833333Y-123757380D01*
X162738095Y-123709761D01*
X164071428Y-123757380D02*
X164071428Y-123233571D01*
X164023809Y-123138333D01*
X163928571Y-123090714D01*
X163738095Y-123090714D01*
X163642857Y-123138333D01*
X164071428Y-123709761D02*
X163976190Y-123757380D01*
X163738095Y-123757380D01*
X163642857Y-123709761D01*
X163595238Y-123614523D01*
X163595238Y-123519285D01*
X163642857Y-123424047D01*
X163738095Y-123376428D01*
X163976190Y-123376428D01*
X164071428Y-123328809D01*
X164976190Y-123090714D02*
X164976190Y-123900238D01*
X164928571Y-123995476D01*
X164880952Y-124043095D01*
X164785714Y-124090714D01*
X164642857Y-124090714D01*
X164547619Y-124043095D01*
X164976190Y-123709761D02*
X164880952Y-123757380D01*
X164690476Y-123757380D01*
X164595238Y-123709761D01*
X164547619Y-123662142D01*
X164500000Y-123566904D01*
X164500000Y-123281190D01*
X164547619Y-123185952D01*
X164595238Y-123138333D01*
X164690476Y-123090714D01*
X164880952Y-123090714D01*
X164976190Y-123138333D01*
X165880952Y-123757380D02*
X165880952Y-123233571D01*
X165833333Y-123138333D01*
X165738095Y-123090714D01*
X165547619Y-123090714D01*
X165452380Y-123138333D01*
X165880952Y-123709761D02*
X165785714Y-123757380D01*
X165547619Y-123757380D01*
X165452380Y-123709761D01*
X165404761Y-123614523D01*
X165404761Y-123519285D01*
X165452380Y-123424047D01*
X165547619Y-123376428D01*
X165785714Y-123376428D01*
X165880952Y-123328809D01*
X166214285Y-123090714D02*
X166595238Y-123090714D01*
X166357142Y-122757380D02*
X166357142Y-123614523D01*
X166404761Y-123709761D01*
X166499999Y-123757380D01*
X166595238Y-123757380D01*
X166928571Y-123757380D02*
X166928571Y-123090714D01*
X166928571Y-122757380D02*
X166880952Y-122805000D01*
X166928571Y-122852619D01*
X166976190Y-122805000D01*
X166928571Y-122757380D01*
X166928571Y-122852619D01*
X167547619Y-123757380D02*
X167452380Y-123709761D01*
X167404761Y-123662142D01*
X167357142Y-123566904D01*
X167357142Y-123281190D01*
X167404761Y-123185952D01*
X167452380Y-123138333D01*
X167547619Y-123090714D01*
X167690476Y-123090714D01*
X167785714Y-123138333D01*
X167833333Y-123185952D01*
X167880952Y-123281190D01*
X167880952Y-123566904D01*
X167833333Y-123662142D01*
X167785714Y-123709761D01*
X167690476Y-123757380D01*
X167547619Y-123757380D01*
X168309523Y-123090714D02*
X168309523Y-123757380D01*
X168309523Y-123185952D02*
X168357142Y-123138333D01*
X168452380Y-123090714D01*
X168595238Y-123090714D01*
X168690476Y-123138333D01*
X168738095Y-123233571D01*
X168738095Y-123757380D01*
%TO.C,U1*%
X124953095Y-87227380D02*
X124953095Y-88036904D01*
X125000714Y-88132142D01*
X125048333Y-88179761D01*
X125143571Y-88227380D01*
X125334047Y-88227380D01*
X125429285Y-88179761D01*
X125476904Y-88132142D01*
X125524523Y-88036904D01*
X125524523Y-87227380D01*
X126524523Y-88227380D02*
X125953095Y-88227380D01*
X126238809Y-88227380D02*
X126238809Y-87227380D01*
X126143571Y-87370238D01*
X126048333Y-87465476D01*
X125953095Y-87513095D01*
X137958722Y-99595592D02*
X137877910Y-99622529D01*
X137797097Y-99703341D01*
X137743223Y-99811091D01*
X137743223Y-99918841D01*
X137770160Y-99999653D01*
X137850972Y-100134340D01*
X137931784Y-100215152D01*
X138066471Y-100295964D01*
X138147284Y-100322902D01*
X138255033Y-100322902D01*
X138362783Y-100269027D01*
X138416658Y-100215152D01*
X138470532Y-100107402D01*
X138470532Y-100053528D01*
X138281971Y-99864966D01*
X138174221Y-99972715D01*
X138766844Y-99864966D02*
X138201158Y-99299280D01*
X138416658Y-99083781D01*
X138497470Y-99056844D01*
X138551345Y-99056844D01*
X138632157Y-99083781D01*
X138712969Y-99164593D01*
X138739906Y-99245406D01*
X138739906Y-99299280D01*
X138712969Y-99380093D01*
X138497470Y-99595592D01*
X139628841Y-99002969D02*
X139305592Y-99326218D01*
X139467216Y-99164593D02*
X138901531Y-98598908D01*
X138928468Y-98733595D01*
X138928468Y-98841345D01*
X138901531Y-98922157D01*
X140167589Y-98464221D02*
X139844340Y-98787470D01*
X140005964Y-98625845D02*
X139440279Y-98060160D01*
X139467216Y-98194847D01*
X139467216Y-98302597D01*
X139440279Y-98383409D01*
X137801158Y-81573155D02*
X137720346Y-81600093D01*
X137639534Y-81680905D01*
X137585659Y-81788654D01*
X137585659Y-81896404D01*
X137612597Y-81977216D01*
X137693409Y-82111903D01*
X137774221Y-82192715D01*
X137908908Y-82273528D01*
X137989720Y-82300465D01*
X138097470Y-82300465D01*
X138205219Y-82246590D01*
X138259094Y-82192715D01*
X138312969Y-82084966D01*
X138312969Y-82031091D01*
X138124407Y-81842529D01*
X138016658Y-81950279D01*
X138609280Y-81842529D02*
X138043595Y-81276844D01*
X138932529Y-81519280D01*
X138366844Y-80953595D01*
X139201903Y-81249906D02*
X138636218Y-80684221D01*
X138770905Y-80549534D01*
X138878654Y-80495659D01*
X138986404Y-80495659D01*
X139067216Y-80522597D01*
X139201903Y-80603409D01*
X139282715Y-80684221D01*
X139363528Y-80818908D01*
X139390465Y-80899720D01*
X139390465Y-81007470D01*
X139336590Y-81115219D01*
X139201903Y-81249906D01*
X137858722Y-109755592D02*
X137777910Y-109782529D01*
X137697097Y-109863341D01*
X137643223Y-109971091D01*
X137643223Y-110078841D01*
X137670160Y-110159653D01*
X137750972Y-110294340D01*
X137831784Y-110375152D01*
X137966471Y-110455964D01*
X138047284Y-110482902D01*
X138155033Y-110482902D01*
X138262783Y-110429027D01*
X138316658Y-110375152D01*
X138370532Y-110267402D01*
X138370532Y-110213528D01*
X138181971Y-110024966D01*
X138074221Y-110132715D01*
X138666844Y-110024966D02*
X138101158Y-109459280D01*
X138316658Y-109243781D01*
X138397470Y-109216844D01*
X138451345Y-109216844D01*
X138532157Y-109243781D01*
X138612969Y-109324593D01*
X138639906Y-109405406D01*
X138639906Y-109459280D01*
X138612969Y-109540093D01*
X138397470Y-109755592D01*
X139528841Y-109162969D02*
X139205592Y-109486218D01*
X139367216Y-109324593D02*
X138801531Y-108758908D01*
X138828468Y-108893595D01*
X138828468Y-109001345D01*
X138801531Y-109082157D01*
X139636590Y-108300972D02*
X140013714Y-108678096D01*
X139286404Y-108220160D02*
X139555778Y-108758908D01*
X139905964Y-108408722D01*
X137801158Y-94273155D02*
X137720346Y-94300093D01*
X137639534Y-94380905D01*
X137585659Y-94488654D01*
X137585659Y-94596404D01*
X137612597Y-94677216D01*
X137693409Y-94811903D01*
X137774221Y-94892715D01*
X137908908Y-94973528D01*
X137989720Y-95000465D01*
X138097470Y-95000465D01*
X138205219Y-94946590D01*
X138259094Y-94892715D01*
X138312969Y-94784966D01*
X138312969Y-94731091D01*
X138124407Y-94542529D01*
X138016658Y-94650279D01*
X138609280Y-94542529D02*
X138043595Y-93976844D01*
X138932529Y-94219280D01*
X138366844Y-93653595D01*
X139201903Y-93949906D02*
X138636218Y-93384221D01*
X138770905Y-93249534D01*
X138878654Y-93195659D01*
X138986404Y-93195659D01*
X139067216Y-93222597D01*
X139201903Y-93303409D01*
X139282715Y-93384221D01*
X139363528Y-93518908D01*
X139390465Y-93599720D01*
X139390465Y-93707470D01*
X139336590Y-93815219D01*
X139201903Y-93949906D01*
X137828096Y-73926218D02*
X137747284Y-73953155D01*
X137666471Y-74033967D01*
X137612597Y-74141717D01*
X137612597Y-74249467D01*
X137639534Y-74330279D01*
X137720346Y-74464966D01*
X137801158Y-74545778D01*
X137935845Y-74626590D01*
X138016658Y-74653528D01*
X138124407Y-74653528D01*
X138232157Y-74599653D01*
X138286032Y-74545778D01*
X138339906Y-74438028D01*
X138339906Y-74384154D01*
X138151345Y-74195592D01*
X138043595Y-74303341D01*
X138636218Y-74195592D02*
X138070532Y-73629906D01*
X138286032Y-73414407D01*
X138366844Y-73387470D01*
X138420719Y-73387470D01*
X138501531Y-73414407D01*
X138582343Y-73495219D01*
X138609280Y-73576032D01*
X138609280Y-73629906D01*
X138582343Y-73710719D01*
X138366844Y-73926218D01*
X138582343Y-73118096D02*
X138932529Y-72767910D01*
X138959467Y-73171971D01*
X139040279Y-73091158D01*
X139121091Y-73064221D01*
X139174966Y-73064221D01*
X139255778Y-73091158D01*
X139390465Y-73225845D01*
X139417402Y-73306658D01*
X139417402Y-73360532D01*
X139390465Y-73441345D01*
X139228841Y-73602969D01*
X139148028Y-73629906D01*
X139094154Y-73629906D01*
X137958722Y-102135592D02*
X137877910Y-102162529D01*
X137797097Y-102243341D01*
X137743223Y-102351091D01*
X137743223Y-102458841D01*
X137770160Y-102539653D01*
X137850972Y-102674340D01*
X137931784Y-102755152D01*
X138066471Y-102835964D01*
X138147284Y-102862902D01*
X138255033Y-102862902D01*
X138362783Y-102809027D01*
X138416658Y-102755152D01*
X138470532Y-102647402D01*
X138470532Y-102593528D01*
X138281971Y-102404966D01*
X138174221Y-102512715D01*
X138766844Y-102404966D02*
X138201158Y-101839280D01*
X138416658Y-101623781D01*
X138497470Y-101596844D01*
X138551345Y-101596844D01*
X138632157Y-101623781D01*
X138712969Y-101704593D01*
X138739906Y-101785406D01*
X138739906Y-101839280D01*
X138712969Y-101920093D01*
X138497470Y-102135592D01*
X139628841Y-101542969D02*
X139305592Y-101866218D01*
X139467216Y-101704593D02*
X138901531Y-101138908D01*
X138928468Y-101273595D01*
X138928468Y-101381345D01*
X138901531Y-101462157D01*
X139332529Y-100815659D02*
X139332529Y-100761784D01*
X139359467Y-100680972D01*
X139494154Y-100546285D01*
X139574966Y-100519348D01*
X139628841Y-100519348D01*
X139709653Y-100546285D01*
X139763528Y-100600160D01*
X139817402Y-100707910D01*
X139817402Y-101354407D01*
X140167589Y-101004221D01*
X137801158Y-106973155D02*
X137720346Y-107000093D01*
X137639534Y-107080905D01*
X137585659Y-107188654D01*
X137585659Y-107296404D01*
X137612597Y-107377216D01*
X137693409Y-107511903D01*
X137774221Y-107592715D01*
X137908908Y-107673528D01*
X137989720Y-107700465D01*
X138097470Y-107700465D01*
X138205219Y-107646590D01*
X138259094Y-107592715D01*
X138312969Y-107484966D01*
X138312969Y-107431091D01*
X138124407Y-107242529D01*
X138016658Y-107350279D01*
X138609280Y-107242529D02*
X138043595Y-106676844D01*
X138932529Y-106919280D01*
X138366844Y-106353595D01*
X139201903Y-106649906D02*
X138636218Y-106084221D01*
X138770905Y-105949534D01*
X138878654Y-105895659D01*
X138986404Y-105895659D01*
X139067216Y-105922597D01*
X139201903Y-106003409D01*
X139282715Y-106084221D01*
X139363528Y-106218908D01*
X139390465Y-106299720D01*
X139390465Y-106407470D01*
X139336590Y-106515219D01*
X139201903Y-106649906D01*
X137828096Y-79006218D02*
X137747284Y-79033155D01*
X137666471Y-79113967D01*
X137612597Y-79221717D01*
X137612597Y-79329467D01*
X137639534Y-79410279D01*
X137720346Y-79544966D01*
X137801158Y-79625778D01*
X137935845Y-79706590D01*
X138016658Y-79733528D01*
X138124407Y-79733528D01*
X138232157Y-79679653D01*
X138286032Y-79625778D01*
X138339906Y-79518028D01*
X138339906Y-79464154D01*
X138151345Y-79275592D01*
X138043595Y-79383341D01*
X138636218Y-79275592D02*
X138070532Y-78709906D01*
X138286032Y-78494407D01*
X138366844Y-78467470D01*
X138420719Y-78467470D01*
X138501531Y-78494407D01*
X138582343Y-78575219D01*
X138609280Y-78656032D01*
X138609280Y-78709906D01*
X138582343Y-78790719D01*
X138366844Y-79006218D01*
X138905592Y-77874847D02*
X138636218Y-78144221D01*
X138878654Y-78440532D01*
X138878654Y-78386658D01*
X138905592Y-78305845D01*
X139040279Y-78171158D01*
X139121091Y-78144221D01*
X139174966Y-78144221D01*
X139255778Y-78171158D01*
X139390465Y-78305845D01*
X139417402Y-78386658D01*
X139417402Y-78440532D01*
X139390465Y-78521345D01*
X139255778Y-78656032D01*
X139174966Y-78682969D01*
X139121091Y-78682969D01*
X137728096Y-86596218D02*
X137647284Y-86623155D01*
X137566471Y-86703967D01*
X137512597Y-86811717D01*
X137512597Y-86919467D01*
X137539534Y-87000279D01*
X137620346Y-87134966D01*
X137701158Y-87215778D01*
X137835845Y-87296590D01*
X137916658Y-87323528D01*
X138024407Y-87323528D01*
X138132157Y-87269653D01*
X138186032Y-87215778D01*
X138239906Y-87108028D01*
X138239906Y-87054154D01*
X138051345Y-86865592D01*
X137943595Y-86973341D01*
X138536218Y-86865592D02*
X137970532Y-86299906D01*
X138186032Y-86084407D01*
X138266844Y-86057470D01*
X138320719Y-86057470D01*
X138401531Y-86084407D01*
X138482343Y-86165219D01*
X138509280Y-86246032D01*
X138509280Y-86299906D01*
X138482343Y-86380719D01*
X138266844Y-86596218D01*
X138482343Y-85788096D02*
X138859467Y-85410972D01*
X139182715Y-86219094D01*
X137828096Y-84086218D02*
X137747284Y-84113155D01*
X137666471Y-84193967D01*
X137612597Y-84301717D01*
X137612597Y-84409467D01*
X137639534Y-84490279D01*
X137720346Y-84624966D01*
X137801158Y-84705778D01*
X137935845Y-84786590D01*
X138016658Y-84813528D01*
X138124407Y-84813528D01*
X138232157Y-84759653D01*
X138286032Y-84705778D01*
X138339906Y-84598028D01*
X138339906Y-84544154D01*
X138151345Y-84355592D01*
X138043595Y-84463341D01*
X138636218Y-84355592D02*
X138070532Y-83789906D01*
X138286032Y-83574407D01*
X138366844Y-83547470D01*
X138420719Y-83547470D01*
X138501531Y-83574407D01*
X138582343Y-83655219D01*
X138609280Y-83736032D01*
X138609280Y-83789906D01*
X138582343Y-83870719D01*
X138366844Y-84086218D01*
X138878654Y-82981784D02*
X138770905Y-83089534D01*
X138743967Y-83170346D01*
X138743967Y-83224221D01*
X138770905Y-83358908D01*
X138851717Y-83493595D01*
X139067216Y-83709094D01*
X139148028Y-83736032D01*
X139201903Y-83736032D01*
X139282715Y-83709094D01*
X139390465Y-83601345D01*
X139417402Y-83520532D01*
X139417402Y-83466658D01*
X139390465Y-83385845D01*
X139255778Y-83251158D01*
X139174966Y-83224221D01*
X139121091Y-83224221D01*
X139040279Y-83251158D01*
X138932529Y-83358908D01*
X138905592Y-83439720D01*
X138905592Y-83493595D01*
X138932529Y-83574407D01*
X137928096Y-71386218D02*
X137847284Y-71413155D01*
X137766471Y-71493967D01*
X137712597Y-71601717D01*
X137712597Y-71709467D01*
X137739534Y-71790279D01*
X137820346Y-71924966D01*
X137901158Y-72005778D01*
X138035845Y-72086590D01*
X138116658Y-72113528D01*
X138224407Y-72113528D01*
X138332157Y-72059653D01*
X138386032Y-72005778D01*
X138439906Y-71898028D01*
X138439906Y-71844154D01*
X138251345Y-71655592D01*
X138143595Y-71763341D01*
X138736218Y-71655592D02*
X138170532Y-71089906D01*
X138386032Y-70874407D01*
X138466844Y-70847470D01*
X138520719Y-70847470D01*
X138601531Y-70874407D01*
X138682343Y-70955219D01*
X138709280Y-71036032D01*
X138709280Y-71089906D01*
X138682343Y-71170719D01*
X138466844Y-71386218D01*
X138763155Y-70605033D02*
X138763155Y-70551158D01*
X138790093Y-70470346D01*
X138924780Y-70335659D01*
X139005592Y-70308722D01*
X139059467Y-70308722D01*
X139140279Y-70335659D01*
X139194154Y-70389534D01*
X139248028Y-70497284D01*
X139248028Y-71143781D01*
X139598215Y-70793595D01*
X137828096Y-89166218D02*
X137747284Y-89193155D01*
X137666471Y-89273967D01*
X137612597Y-89381717D01*
X137612597Y-89489467D01*
X137639534Y-89570279D01*
X137720346Y-89704966D01*
X137801158Y-89785778D01*
X137935845Y-89866590D01*
X138016658Y-89893528D01*
X138124407Y-89893528D01*
X138232157Y-89839653D01*
X138286032Y-89785778D01*
X138339906Y-89678028D01*
X138339906Y-89624154D01*
X138151345Y-89435592D01*
X138043595Y-89543341D01*
X138636218Y-89435592D02*
X138070532Y-88869906D01*
X138286032Y-88654407D01*
X138366844Y-88627470D01*
X138420719Y-88627470D01*
X138501531Y-88654407D01*
X138582343Y-88735219D01*
X138609280Y-88816032D01*
X138609280Y-88869906D01*
X138582343Y-88950719D01*
X138366844Y-89166218D01*
X138959467Y-88465845D02*
X138878654Y-88492783D01*
X138824780Y-88492783D01*
X138743967Y-88465845D01*
X138717030Y-88438908D01*
X138690093Y-88358096D01*
X138690093Y-88304221D01*
X138717030Y-88223409D01*
X138824780Y-88115659D01*
X138905592Y-88088722D01*
X138959467Y-88088722D01*
X139040279Y-88115659D01*
X139067216Y-88142597D01*
X139094154Y-88223409D01*
X139094154Y-88277284D01*
X139067216Y-88358096D01*
X138959467Y-88465845D01*
X138932529Y-88546658D01*
X138932529Y-88600532D01*
X138959467Y-88681345D01*
X139067216Y-88789094D01*
X139148028Y-88816032D01*
X139201903Y-88816032D01*
X139282715Y-88789094D01*
X139390465Y-88681345D01*
X139417402Y-88600532D01*
X139417402Y-88546658D01*
X139390465Y-88465845D01*
X139282715Y-88358096D01*
X139201903Y-88331158D01*
X139148028Y-88331158D01*
X139067216Y-88358096D01*
X137801158Y-68873155D02*
X137720346Y-68900093D01*
X137639534Y-68980905D01*
X137585659Y-69088654D01*
X137585659Y-69196404D01*
X137612597Y-69277216D01*
X137693409Y-69411903D01*
X137774221Y-69492715D01*
X137908908Y-69573528D01*
X137989720Y-69600465D01*
X138097470Y-69600465D01*
X138205219Y-69546590D01*
X138259094Y-69492715D01*
X138312969Y-69384966D01*
X138312969Y-69331091D01*
X138124407Y-69142529D01*
X138016658Y-69250279D01*
X138609280Y-69142529D02*
X138043595Y-68576844D01*
X138932529Y-68819280D01*
X138366844Y-68253595D01*
X139201903Y-68549906D02*
X138636218Y-67984221D01*
X138770905Y-67849534D01*
X138878654Y-67795659D01*
X138986404Y-67795659D01*
X139067216Y-67822597D01*
X139201903Y-67903409D01*
X139282715Y-67984221D01*
X139363528Y-68118908D01*
X139390465Y-68199720D01*
X139390465Y-68307470D01*
X139336590Y-68415219D01*
X139201903Y-68549906D01*
X137928096Y-66296218D02*
X137847284Y-66323155D01*
X137766471Y-66403967D01*
X137712597Y-66511717D01*
X137712597Y-66619467D01*
X137739534Y-66700279D01*
X137820346Y-66834966D01*
X137901158Y-66915778D01*
X138035845Y-66996590D01*
X138116658Y-67023528D01*
X138224407Y-67023528D01*
X138332157Y-66969653D01*
X138386032Y-66915778D01*
X138439906Y-66808028D01*
X138439906Y-66754154D01*
X138251345Y-66565592D01*
X138143595Y-66673341D01*
X138736218Y-66565592D02*
X138170532Y-65999906D01*
X138386032Y-65784407D01*
X138466844Y-65757470D01*
X138520719Y-65757470D01*
X138601531Y-65784407D01*
X138682343Y-65865219D01*
X138709280Y-65946032D01*
X138709280Y-65999906D01*
X138682343Y-66080719D01*
X138466844Y-66296218D01*
X139598215Y-65703595D02*
X139274966Y-66026844D01*
X139436590Y-65865219D02*
X138870905Y-65299534D01*
X138897842Y-65434221D01*
X138897842Y-65541971D01*
X138870905Y-65622783D01*
X137828096Y-91706218D02*
X137747284Y-91733155D01*
X137666471Y-91813967D01*
X137612597Y-91921717D01*
X137612597Y-92029467D01*
X137639534Y-92110279D01*
X137720346Y-92244966D01*
X137801158Y-92325778D01*
X137935845Y-92406590D01*
X138016658Y-92433528D01*
X138124407Y-92433528D01*
X138232157Y-92379653D01*
X138286032Y-92325778D01*
X138339906Y-92218028D01*
X138339906Y-92164154D01*
X138151345Y-91975592D01*
X138043595Y-92083341D01*
X138636218Y-91975592D02*
X138070532Y-91409906D01*
X138286032Y-91194407D01*
X138366844Y-91167470D01*
X138420719Y-91167470D01*
X138501531Y-91194407D01*
X138582343Y-91275219D01*
X138609280Y-91356032D01*
X138609280Y-91409906D01*
X138582343Y-91490719D01*
X138366844Y-91706218D01*
X139228841Y-91382969D02*
X139336590Y-91275219D01*
X139363528Y-91194407D01*
X139363528Y-91140532D01*
X139336590Y-91005845D01*
X139255778Y-90871158D01*
X139040279Y-90655659D01*
X138959467Y-90628722D01*
X138905592Y-90628722D01*
X138824780Y-90655659D01*
X138717030Y-90763409D01*
X138690093Y-90844221D01*
X138690093Y-90898096D01*
X138717030Y-90978908D01*
X138851717Y-91113595D01*
X138932529Y-91140532D01*
X138986404Y-91140532D01*
X139067216Y-91113595D01*
X139174966Y-91005845D01*
X139201903Y-90925033D01*
X139201903Y-90871158D01*
X139174966Y-90790346D01*
X137812722Y-112295592D02*
X137731910Y-112322529D01*
X137651097Y-112403341D01*
X137597223Y-112511091D01*
X137597223Y-112618841D01*
X137624160Y-112699653D01*
X137704972Y-112834340D01*
X137785784Y-112915152D01*
X137920471Y-112995964D01*
X138001284Y-113022902D01*
X138109033Y-113022902D01*
X138216783Y-112969027D01*
X138270658Y-112915152D01*
X138324532Y-112807402D01*
X138324532Y-112753528D01*
X138135971Y-112564966D01*
X138028221Y-112672715D01*
X138620844Y-112564966D02*
X138055158Y-111999280D01*
X138270658Y-111783781D01*
X138351470Y-111756844D01*
X138405345Y-111756844D01*
X138486157Y-111783781D01*
X138566969Y-111864593D01*
X138593906Y-111945406D01*
X138593906Y-111999280D01*
X138566969Y-112080093D01*
X138351470Y-112295592D01*
X139482841Y-111702969D02*
X139159592Y-112026218D01*
X139321216Y-111864593D02*
X138755531Y-111298908D01*
X138782468Y-111433595D01*
X138782468Y-111541345D01*
X138755531Y-111622157D01*
X139428966Y-110625473D02*
X139159592Y-110894847D01*
X139402028Y-111191158D01*
X139402028Y-111137284D01*
X139428966Y-111056471D01*
X139563653Y-110921784D01*
X139644465Y-110894847D01*
X139698340Y-110894847D01*
X139779152Y-110921784D01*
X139913839Y-111056471D01*
X139940776Y-111137284D01*
X139940776Y-111191158D01*
X139913839Y-111271971D01*
X139779152Y-111406658D01*
X139698340Y-111433595D01*
X139644465Y-111433595D01*
X137828096Y-76466218D02*
X137747284Y-76493155D01*
X137666471Y-76573967D01*
X137612597Y-76681717D01*
X137612597Y-76789467D01*
X137639534Y-76870279D01*
X137720346Y-77004966D01*
X137801158Y-77085778D01*
X137935845Y-77166590D01*
X138016658Y-77193528D01*
X138124407Y-77193528D01*
X138232157Y-77139653D01*
X138286032Y-77085778D01*
X138339906Y-76978028D01*
X138339906Y-76924154D01*
X138151345Y-76735592D01*
X138043595Y-76843341D01*
X138636218Y-76735592D02*
X138070532Y-76169906D01*
X138286032Y-75954407D01*
X138366844Y-75927470D01*
X138420719Y-75927470D01*
X138501531Y-75954407D01*
X138582343Y-76035219D01*
X138609280Y-76116032D01*
X138609280Y-76169906D01*
X138582343Y-76250719D01*
X138366844Y-76466218D01*
X139067216Y-75550346D02*
X139444340Y-75927470D01*
X138717030Y-75469534D02*
X138986404Y-76008282D01*
X139336590Y-75658096D01*
X137812722Y-97055592D02*
X137731910Y-97082529D01*
X137651097Y-97163341D01*
X137597223Y-97271091D01*
X137597223Y-97378841D01*
X137624160Y-97459653D01*
X137704972Y-97594340D01*
X137785784Y-97675152D01*
X137920471Y-97755964D01*
X138001284Y-97782902D01*
X138109033Y-97782902D01*
X138216783Y-97729027D01*
X138270658Y-97675152D01*
X138324532Y-97567402D01*
X138324532Y-97513528D01*
X138135971Y-97324966D01*
X138028221Y-97432715D01*
X138620844Y-97324966D02*
X138055158Y-96759280D01*
X138270658Y-96543781D01*
X138351470Y-96516844D01*
X138405345Y-96516844D01*
X138486157Y-96543781D01*
X138566969Y-96624593D01*
X138593906Y-96705406D01*
X138593906Y-96759280D01*
X138566969Y-96840093D01*
X138351470Y-97055592D01*
X139482841Y-96462969D02*
X139159592Y-96786218D01*
X139321216Y-96624593D02*
X138755531Y-96058908D01*
X138782468Y-96193595D01*
X138782468Y-96301345D01*
X138755531Y-96382157D01*
X139267341Y-95547097D02*
X139321216Y-95493223D01*
X139402028Y-95466285D01*
X139455903Y-95466285D01*
X139536715Y-95493223D01*
X139671402Y-95574035D01*
X139806089Y-95708722D01*
X139886902Y-95843409D01*
X139913839Y-95924221D01*
X139913839Y-95978096D01*
X139886902Y-96058908D01*
X139833027Y-96112783D01*
X139752215Y-96139720D01*
X139698340Y-96139720D01*
X139617528Y-96112783D01*
X139482841Y-96031971D01*
X139348154Y-95897284D01*
X139267341Y-95762597D01*
X139240404Y-95681784D01*
X139240404Y-95627910D01*
X139267341Y-95547097D01*
X137812722Y-104675592D02*
X137731910Y-104702529D01*
X137651097Y-104783341D01*
X137597223Y-104891091D01*
X137597223Y-104998841D01*
X137624160Y-105079653D01*
X137704972Y-105214340D01*
X137785784Y-105295152D01*
X137920471Y-105375964D01*
X138001284Y-105402902D01*
X138109033Y-105402902D01*
X138216783Y-105349027D01*
X138270658Y-105295152D01*
X138324532Y-105187402D01*
X138324532Y-105133528D01*
X138135971Y-104944966D01*
X138028221Y-105052715D01*
X138620844Y-104944966D02*
X138055158Y-104379280D01*
X138270658Y-104163781D01*
X138351470Y-104136844D01*
X138405345Y-104136844D01*
X138486157Y-104163781D01*
X138566969Y-104244593D01*
X138593906Y-104325406D01*
X138593906Y-104379280D01*
X138566969Y-104460093D01*
X138351470Y-104675592D01*
X139482841Y-104082969D02*
X139159592Y-104406218D01*
X139321216Y-104244593D02*
X138755531Y-103678908D01*
X138782468Y-103813595D01*
X138782468Y-103921345D01*
X138755531Y-104002157D01*
X139105717Y-103328722D02*
X139455903Y-102978536D01*
X139482841Y-103382597D01*
X139563653Y-103301784D01*
X139644465Y-103274847D01*
X139698340Y-103274847D01*
X139779152Y-103301784D01*
X139913839Y-103436471D01*
X139940776Y-103517284D01*
X139940776Y-103571158D01*
X139913839Y-103651971D01*
X139752215Y-103813595D01*
X139671402Y-103840532D01*
X139617528Y-103840532D01*
X137828096Y-63766218D02*
X137747284Y-63793155D01*
X137666471Y-63873967D01*
X137612597Y-63981717D01*
X137612597Y-64089467D01*
X137639534Y-64170279D01*
X137720346Y-64304966D01*
X137801158Y-64385778D01*
X137935845Y-64466590D01*
X138016658Y-64493528D01*
X138124407Y-64493528D01*
X138232157Y-64439653D01*
X138286032Y-64385778D01*
X138339906Y-64278028D01*
X138339906Y-64224154D01*
X138151345Y-64035592D01*
X138043595Y-64143341D01*
X138636218Y-64035592D02*
X138070532Y-63469906D01*
X138286032Y-63254407D01*
X138366844Y-63227470D01*
X138420719Y-63227470D01*
X138501531Y-63254407D01*
X138582343Y-63335219D01*
X138609280Y-63416032D01*
X138609280Y-63469906D01*
X138582343Y-63550719D01*
X138366844Y-63766218D01*
X138743967Y-62796471D02*
X138797842Y-62742597D01*
X138878654Y-62715659D01*
X138932529Y-62715659D01*
X139013341Y-62742597D01*
X139148028Y-62823409D01*
X139282715Y-62958096D01*
X139363528Y-63092783D01*
X139390465Y-63173595D01*
X139390465Y-63227470D01*
X139363528Y-63308282D01*
X139309653Y-63362157D01*
X139228841Y-63389094D01*
X139174966Y-63389094D01*
X139094154Y-63362157D01*
X138959467Y-63281345D01*
X138824780Y-63146658D01*
X138743967Y-63011971D01*
X138717030Y-62931158D01*
X138717030Y-62877284D01*
X138743967Y-62796471D01*
X118019761Y-114323809D02*
X118134047Y-114361904D01*
X118324523Y-114361904D01*
X118400714Y-114323809D01*
X118438809Y-114285714D01*
X118476904Y-114209523D01*
X118476904Y-114133333D01*
X118438809Y-114057142D01*
X118400714Y-114019047D01*
X118324523Y-113980952D01*
X118172142Y-113942857D01*
X118095952Y-113904761D01*
X118057857Y-113866666D01*
X118019761Y-113790476D01*
X118019761Y-113714285D01*
X118057857Y-113638095D01*
X118095952Y-113600000D01*
X118172142Y-113561904D01*
X118362619Y-113561904D01*
X118476904Y-113600000D01*
X118743571Y-113561904D02*
X118934047Y-114361904D01*
X119086428Y-113790476D01*
X119238809Y-114361904D01*
X119429285Y-113561904D01*
X119734047Y-114361904D02*
X119734047Y-113561904D01*
X119924523Y-113561904D01*
X120038809Y-113600000D01*
X120115000Y-113676190D01*
X120153095Y-113752380D01*
X120191190Y-113904761D01*
X120191190Y-114019047D01*
X120153095Y-114171428D01*
X120115000Y-114247619D01*
X120038809Y-114323809D01*
X119924523Y-114361904D01*
X119734047Y-114361904D01*
X120534047Y-114361904D02*
X120534047Y-113561904D01*
X121067380Y-113561904D02*
X121219761Y-113561904D01*
X121295952Y-113600000D01*
X121372142Y-113676190D01*
X121410238Y-113828571D01*
X121410238Y-114095238D01*
X121372142Y-114247619D01*
X121295952Y-114323809D01*
X121219761Y-114361904D01*
X121067380Y-114361904D01*
X120991190Y-114323809D01*
X120915000Y-114247619D01*
X120876904Y-114095238D01*
X120876904Y-113828571D01*
X120915000Y-113676190D01*
X120991190Y-113600000D01*
X121067380Y-113561904D01*
X129905476Y-114323809D02*
X130019761Y-114361904D01*
X130210238Y-114361904D01*
X130286428Y-114323809D01*
X130324523Y-114285714D01*
X130362619Y-114209523D01*
X130362619Y-114133333D01*
X130324523Y-114057142D01*
X130286428Y-114019047D01*
X130210238Y-113980952D01*
X130057857Y-113942857D01*
X129981666Y-113904761D01*
X129943571Y-113866666D01*
X129905476Y-113790476D01*
X129905476Y-113714285D01*
X129943571Y-113638095D01*
X129981666Y-113600000D01*
X130057857Y-113561904D01*
X130248333Y-113561904D01*
X130362619Y-113600000D01*
X130629285Y-113561904D02*
X130819761Y-114361904D01*
X130972142Y-113790476D01*
X131124523Y-114361904D01*
X131315000Y-113561904D01*
X132076904Y-114285714D02*
X132038809Y-114323809D01*
X131924523Y-114361904D01*
X131848333Y-114361904D01*
X131734047Y-114323809D01*
X131657857Y-114247619D01*
X131619761Y-114171428D01*
X131581666Y-114019047D01*
X131581666Y-113904761D01*
X131619761Y-113752380D01*
X131657857Y-113676190D01*
X131734047Y-113600000D01*
X131848333Y-113561904D01*
X131924523Y-113561904D01*
X132038809Y-113600000D01*
X132076904Y-113638095D01*
X132800714Y-114361904D02*
X132419761Y-114361904D01*
X132419761Y-113561904D01*
X133067380Y-114361904D02*
X133067380Y-113561904D01*
X133524523Y-114361904D02*
X133181666Y-113904761D01*
X133524523Y-113561904D02*
X133067380Y-114019047D01*
X111235473Y-66844966D02*
X111989720Y-67222089D01*
X111612597Y-66467842D01*
X112312969Y-66844966D02*
X112420719Y-66791091D01*
X112555406Y-66656404D01*
X112582343Y-66575592D01*
X112582343Y-66521717D01*
X112555406Y-66440905D01*
X112501531Y-66387030D01*
X112420719Y-66360093D01*
X112366844Y-66360093D01*
X112286032Y-66387030D01*
X112151345Y-66467842D01*
X112070532Y-66494780D01*
X112016658Y-66494780D01*
X111935845Y-66467842D01*
X111881971Y-66413967D01*
X111855033Y-66333155D01*
X111855033Y-66279280D01*
X111881971Y-66198468D01*
X112016658Y-66063781D01*
X112124407Y-66009906D01*
X112743967Y-65929094D02*
X113013341Y-66198468D01*
X112259094Y-65821345D02*
X112743967Y-65929094D01*
X112636218Y-65444221D01*
X113336590Y-65821345D02*
X113444340Y-65767470D01*
X113579027Y-65632783D01*
X113605964Y-65551971D01*
X113605964Y-65498096D01*
X113579027Y-65417284D01*
X113525152Y-65363409D01*
X113444340Y-65336471D01*
X113390465Y-65336471D01*
X113309653Y-65363409D01*
X113174966Y-65444221D01*
X113094154Y-65471158D01*
X113040279Y-65471158D01*
X112959467Y-65444221D01*
X112905592Y-65390346D01*
X112878654Y-65309534D01*
X112878654Y-65255659D01*
X112905592Y-65174847D01*
X113040279Y-65040160D01*
X113148028Y-64986285D01*
X111704722Y-91975592D02*
X111623910Y-92002529D01*
X111543097Y-92083341D01*
X111489223Y-92191091D01*
X111489223Y-92298841D01*
X111516160Y-92379653D01*
X111596972Y-92514340D01*
X111677784Y-92595152D01*
X111812471Y-92675964D01*
X111893284Y-92702902D01*
X112001033Y-92702902D01*
X112108783Y-92649027D01*
X112162658Y-92595152D01*
X112216532Y-92487402D01*
X112216532Y-92433528D01*
X112027971Y-92244966D01*
X111920221Y-92352715D01*
X112512844Y-92244966D02*
X111947158Y-91679280D01*
X112162658Y-91463781D01*
X112243470Y-91436844D01*
X112297345Y-91436844D01*
X112378157Y-91463781D01*
X112458969Y-91544593D01*
X112485906Y-91625406D01*
X112485906Y-91679280D01*
X112458969Y-91760093D01*
X112243470Y-91975592D01*
X112539781Y-91194407D02*
X112539781Y-91140532D01*
X112566719Y-91059720D01*
X112701406Y-90925033D01*
X112782218Y-90898096D01*
X112836093Y-90898096D01*
X112916905Y-90925033D01*
X112970780Y-90978908D01*
X113024654Y-91086658D01*
X113024654Y-91733155D01*
X113374841Y-91382969D01*
X113078529Y-90655659D02*
X113078529Y-90601784D01*
X113105467Y-90520972D01*
X113240154Y-90386285D01*
X113320966Y-90359348D01*
X113374841Y-90359348D01*
X113455653Y-90386285D01*
X113509528Y-90440160D01*
X113563402Y-90547910D01*
X113563402Y-91194407D01*
X113913589Y-90844221D01*
X111704722Y-102135592D02*
X111623910Y-102162529D01*
X111543097Y-102243341D01*
X111489223Y-102351091D01*
X111489223Y-102458841D01*
X111516160Y-102539653D01*
X111596972Y-102674340D01*
X111677784Y-102755152D01*
X111812471Y-102835964D01*
X111893284Y-102862902D01*
X112001033Y-102862902D01*
X112108783Y-102809027D01*
X112162658Y-102755152D01*
X112216532Y-102647402D01*
X112216532Y-102593528D01*
X112027971Y-102404966D01*
X111920221Y-102512715D01*
X112512844Y-102404966D02*
X111947158Y-101839280D01*
X112162658Y-101623781D01*
X112243470Y-101596844D01*
X112297345Y-101596844D01*
X112378157Y-101623781D01*
X112458969Y-101704593D01*
X112485906Y-101785406D01*
X112485906Y-101839280D01*
X112458969Y-101920093D01*
X112243470Y-102135592D01*
X113374841Y-101542969D02*
X113051592Y-101866218D01*
X113213216Y-101704593D02*
X112647531Y-101138908D01*
X112674468Y-101273595D01*
X112674468Y-101381345D01*
X112647531Y-101462157D01*
X113644215Y-101273595D02*
X113751964Y-101165845D01*
X113778902Y-101085033D01*
X113778902Y-101031158D01*
X113751964Y-100896471D01*
X113671152Y-100761784D01*
X113455653Y-100546285D01*
X113374841Y-100519348D01*
X113320966Y-100519348D01*
X113240154Y-100546285D01*
X113132404Y-100654035D01*
X113105467Y-100734847D01*
X113105467Y-100788722D01*
X113132404Y-100869534D01*
X113267091Y-101004221D01*
X113347903Y-101031158D01*
X113401778Y-101031158D01*
X113482590Y-101004221D01*
X113590340Y-100896471D01*
X113617277Y-100815659D01*
X113617277Y-100761784D01*
X113590340Y-100680972D01*
X111704722Y-104675592D02*
X111623910Y-104702529D01*
X111543097Y-104783341D01*
X111489223Y-104891091D01*
X111489223Y-104998841D01*
X111516160Y-105079653D01*
X111596972Y-105214340D01*
X111677784Y-105295152D01*
X111812471Y-105375964D01*
X111893284Y-105402902D01*
X112001033Y-105402902D01*
X112108783Y-105349027D01*
X112162658Y-105295152D01*
X112216532Y-105187402D01*
X112216532Y-105133528D01*
X112027971Y-104944966D01*
X111920221Y-105052715D01*
X112512844Y-104944966D02*
X111947158Y-104379280D01*
X112162658Y-104163781D01*
X112243470Y-104136844D01*
X112297345Y-104136844D01*
X112378157Y-104163781D01*
X112458969Y-104244593D01*
X112485906Y-104325406D01*
X112485906Y-104379280D01*
X112458969Y-104460093D01*
X112243470Y-104675592D01*
X113374841Y-104082969D02*
X113051592Y-104406218D01*
X113213216Y-104244593D02*
X112647531Y-103678908D01*
X112674468Y-103813595D01*
X112674468Y-103921345D01*
X112647531Y-104002157D01*
X113374841Y-103436471D02*
X113294028Y-103463409D01*
X113240154Y-103463409D01*
X113159341Y-103436471D01*
X113132404Y-103409534D01*
X113105467Y-103328722D01*
X113105467Y-103274847D01*
X113132404Y-103194035D01*
X113240154Y-103086285D01*
X113320966Y-103059348D01*
X113374841Y-103059348D01*
X113455653Y-103086285D01*
X113482590Y-103113223D01*
X113509528Y-103194035D01*
X113509528Y-103247910D01*
X113482590Y-103328722D01*
X113374841Y-103436471D01*
X113347903Y-103517284D01*
X113347903Y-103571158D01*
X113374841Y-103651971D01*
X113482590Y-103759720D01*
X113563402Y-103786658D01*
X113617277Y-103786658D01*
X113698089Y-103759720D01*
X113805839Y-103651971D01*
X113832776Y-103571158D01*
X113832776Y-103517284D01*
X113805839Y-103436471D01*
X113698089Y-103328722D01*
X113617277Y-103301784D01*
X113563402Y-103301784D01*
X113482590Y-103328722D01*
X109869788Y-78808773D02*
X110139162Y-78539399D01*
X109977537Y-79024272D02*
X109600414Y-78270025D01*
X110354661Y-78647149D01*
X110543223Y-78458587D02*
X109977537Y-77892902D01*
X110112224Y-77758215D01*
X110219974Y-77704340D01*
X110327723Y-77704340D01*
X110408536Y-77731277D01*
X110543223Y-77812089D01*
X110624035Y-77892902D01*
X110704847Y-78027589D01*
X110731784Y-78108401D01*
X110731784Y-78216150D01*
X110677910Y-78323900D01*
X110543223Y-78458587D01*
X111378282Y-77515778D02*
X111378282Y-77569653D01*
X111324407Y-77677402D01*
X111270532Y-77731277D01*
X111162783Y-77785152D01*
X111055033Y-77785152D01*
X110974221Y-77758215D01*
X110839534Y-77677402D01*
X110758722Y-77596590D01*
X110677910Y-77461903D01*
X110650972Y-77381091D01*
X110650972Y-77273341D01*
X110704847Y-77165592D01*
X110758722Y-77111717D01*
X110866471Y-77057842D01*
X110920346Y-77057842D01*
X111593781Y-77515778D02*
X112024780Y-77084780D01*
X111459094Y-76411345D02*
X112213341Y-76788468D01*
X111836218Y-76034221D01*
X112913714Y-76088096D02*
X112455778Y-76007284D01*
X112590465Y-76411345D02*
X112024780Y-75845659D01*
X112240279Y-75630160D01*
X112321091Y-75603223D01*
X112374966Y-75603223D01*
X112455778Y-75630160D01*
X112536590Y-75710972D01*
X112563528Y-75791784D01*
X112563528Y-75845659D01*
X112536590Y-75926471D01*
X112321091Y-76141971D01*
X112859839Y-75549348D02*
X113048401Y-75360786D01*
X113425524Y-75576285D02*
X113156150Y-75845659D01*
X112590465Y-75279974D01*
X112859839Y-75010600D01*
X113560211Y-74848975D02*
X113371650Y-75037537D01*
X113667961Y-75333849D02*
X113102276Y-74768163D01*
X113371650Y-74498789D01*
X109937131Y-72933308D02*
X110287317Y-72583122D01*
X110314255Y-72987183D01*
X110395067Y-72906370D01*
X110475879Y-72879433D01*
X110529754Y-72879433D01*
X110610566Y-72906370D01*
X110745253Y-73041057D01*
X110772190Y-73121870D01*
X110772190Y-73175744D01*
X110745253Y-73256557D01*
X110583629Y-73418181D01*
X110502816Y-73445118D01*
X110448942Y-73445118D01*
X110448942Y-72421497D02*
X111203189Y-72798621D01*
X110826065Y-72044374D01*
X110960752Y-71909687D02*
X111310938Y-71559500D01*
X111337876Y-71963561D01*
X111418688Y-71882749D01*
X111499500Y-71855812D01*
X111553375Y-71855812D01*
X111634187Y-71882749D01*
X111768874Y-72017436D01*
X111795812Y-72098248D01*
X111795812Y-72152123D01*
X111768874Y-72232935D01*
X111607250Y-72394560D01*
X111526438Y-72421497D01*
X111472563Y-72421497D01*
X112038248Y-72071311D02*
X112469247Y-71640312D01*
X112253748Y-71155439D02*
X112442309Y-70966877D01*
X112819433Y-71182377D02*
X112550059Y-71451751D01*
X111984374Y-70886065D01*
X112253748Y-70616691D01*
X113061870Y-70939940D02*
X112496184Y-70374255D01*
X113385118Y-70616691D01*
X112819433Y-70051006D01*
X111704722Y-112295592D02*
X111623910Y-112322529D01*
X111543097Y-112403341D01*
X111489223Y-112511091D01*
X111489223Y-112618841D01*
X111516160Y-112699653D01*
X111596972Y-112834340D01*
X111677784Y-112915152D01*
X111812471Y-112995964D01*
X111893284Y-113022902D01*
X112001033Y-113022902D01*
X112108783Y-112969027D01*
X112162658Y-112915152D01*
X112216532Y-112807402D01*
X112216532Y-112753528D01*
X112027971Y-112564966D01*
X111920221Y-112672715D01*
X112512844Y-112564966D02*
X111947158Y-111999280D01*
X112162658Y-111783781D01*
X112243470Y-111756844D01*
X112297345Y-111756844D01*
X112378157Y-111783781D01*
X112458969Y-111864593D01*
X112485906Y-111945406D01*
X112485906Y-111999280D01*
X112458969Y-112080093D01*
X112243470Y-112295592D01*
X113374841Y-111702969D02*
X113051592Y-112026218D01*
X113213216Y-111864593D02*
X112647531Y-111298908D01*
X112674468Y-111433595D01*
X112674468Y-111541345D01*
X112647531Y-111622157D01*
X113294028Y-110652410D02*
X113186279Y-110760160D01*
X113159341Y-110840972D01*
X113159341Y-110894847D01*
X113186279Y-111029534D01*
X113267091Y-111164221D01*
X113482590Y-111379720D01*
X113563402Y-111406658D01*
X113617277Y-111406658D01*
X113698089Y-111379720D01*
X113805839Y-111271971D01*
X113832776Y-111191158D01*
X113832776Y-111137284D01*
X113805839Y-111056471D01*
X113671152Y-110921784D01*
X113590340Y-110894847D01*
X113536465Y-110894847D01*
X113455653Y-110921784D01*
X113347903Y-111029534D01*
X113320966Y-111110346D01*
X113320966Y-111164221D01*
X113347903Y-111245033D01*
X111704722Y-79021592D02*
X111623910Y-79048529D01*
X111543097Y-79129341D01*
X111489223Y-79237091D01*
X111489223Y-79344841D01*
X111516160Y-79425653D01*
X111596972Y-79560340D01*
X111677784Y-79641152D01*
X111812471Y-79721964D01*
X111893284Y-79748902D01*
X112001033Y-79748902D01*
X112108783Y-79695027D01*
X112162658Y-79641152D01*
X112216532Y-79533402D01*
X112216532Y-79479528D01*
X112027971Y-79290966D01*
X111920221Y-79398715D01*
X112512844Y-79290966D02*
X111947158Y-78725280D01*
X112162658Y-78509781D01*
X112243470Y-78482844D01*
X112297345Y-78482844D01*
X112378157Y-78509781D01*
X112458969Y-78590593D01*
X112485906Y-78671406D01*
X112485906Y-78725280D01*
X112458969Y-78806093D01*
X112243470Y-79021592D01*
X112539781Y-78240407D02*
X112539781Y-78186532D01*
X112566719Y-78105720D01*
X112701406Y-77971033D01*
X112782218Y-77944096D01*
X112836093Y-77944096D01*
X112916905Y-77971033D01*
X112970780Y-78024908D01*
X113024654Y-78132658D01*
X113024654Y-78779155D01*
X113374841Y-78428969D01*
X113374841Y-77782471D02*
X113294028Y-77809409D01*
X113240154Y-77809409D01*
X113159341Y-77782471D01*
X113132404Y-77755534D01*
X113105467Y-77674722D01*
X113105467Y-77620847D01*
X113132404Y-77540035D01*
X113240154Y-77432285D01*
X113320966Y-77405348D01*
X113374841Y-77405348D01*
X113455653Y-77432285D01*
X113482590Y-77459223D01*
X113509528Y-77540035D01*
X113509528Y-77593910D01*
X113482590Y-77674722D01*
X113374841Y-77782471D01*
X113347903Y-77863284D01*
X113347903Y-77917158D01*
X113374841Y-77997971D01*
X113482590Y-78105720D01*
X113563402Y-78132658D01*
X113617277Y-78132658D01*
X113698089Y-78105720D01*
X113805839Y-77997971D01*
X113832776Y-77917158D01*
X113832776Y-77863284D01*
X113805839Y-77782471D01*
X113698089Y-77674722D01*
X113617277Y-77647784D01*
X113563402Y-77647784D01*
X113482590Y-77674722D01*
X111704722Y-99595592D02*
X111623910Y-99622529D01*
X111543097Y-99703341D01*
X111489223Y-99811091D01*
X111489223Y-99918841D01*
X111516160Y-99999653D01*
X111596972Y-100134340D01*
X111677784Y-100215152D01*
X111812471Y-100295964D01*
X111893284Y-100322902D01*
X112001033Y-100322902D01*
X112108783Y-100269027D01*
X112162658Y-100215152D01*
X112216532Y-100107402D01*
X112216532Y-100053528D01*
X112027971Y-99864966D01*
X111920221Y-99972715D01*
X112512844Y-99864966D02*
X111947158Y-99299280D01*
X112162658Y-99083781D01*
X112243470Y-99056844D01*
X112297345Y-99056844D01*
X112378157Y-99083781D01*
X112458969Y-99164593D01*
X112485906Y-99245406D01*
X112485906Y-99299280D01*
X112458969Y-99380093D01*
X112243470Y-99595592D01*
X112539781Y-98814407D02*
X112539781Y-98760532D01*
X112566719Y-98679720D01*
X112701406Y-98545033D01*
X112782218Y-98518096D01*
X112836093Y-98518096D01*
X112916905Y-98545033D01*
X112970780Y-98598908D01*
X113024654Y-98706658D01*
X113024654Y-99353155D01*
X113374841Y-99002969D01*
X113159341Y-98087097D02*
X113213216Y-98033223D01*
X113294028Y-98006285D01*
X113347903Y-98006285D01*
X113428715Y-98033223D01*
X113563402Y-98114035D01*
X113698089Y-98248722D01*
X113778902Y-98383409D01*
X113805839Y-98464221D01*
X113805839Y-98518096D01*
X113778902Y-98598908D01*
X113725027Y-98652783D01*
X113644215Y-98679720D01*
X113590340Y-98679720D01*
X113509528Y-98652783D01*
X113374841Y-98571971D01*
X113240154Y-98437284D01*
X113159341Y-98302597D01*
X113132404Y-98221784D01*
X113132404Y-98167910D01*
X113159341Y-98087097D01*
X112201158Y-68873155D02*
X112120346Y-68900093D01*
X112039534Y-68980905D01*
X111985659Y-69088654D01*
X111985659Y-69196404D01*
X112012597Y-69277216D01*
X112093409Y-69411903D01*
X112174221Y-69492715D01*
X112308908Y-69573528D01*
X112389720Y-69600465D01*
X112497470Y-69600465D01*
X112605219Y-69546590D01*
X112659094Y-69492715D01*
X112712969Y-69384966D01*
X112712969Y-69331091D01*
X112524407Y-69142529D01*
X112416658Y-69250279D01*
X113009280Y-69142529D02*
X112443595Y-68576844D01*
X113332529Y-68819280D01*
X112766844Y-68253595D01*
X113601903Y-68549906D02*
X113036218Y-67984221D01*
X113170905Y-67849534D01*
X113278654Y-67795659D01*
X113386404Y-67795659D01*
X113467216Y-67822597D01*
X113601903Y-67903409D01*
X113682715Y-67984221D01*
X113763528Y-68118908D01*
X113790465Y-68199720D01*
X113790465Y-68307470D01*
X113736590Y-68415219D01*
X113601903Y-68549906D01*
X111068129Y-64302309D02*
X111822377Y-64679433D01*
X111445253Y-63925186D01*
X112091751Y-63817436D02*
X112199500Y-63763561D01*
X112253375Y-63763561D01*
X112334187Y-63790499D01*
X112414999Y-63871311D01*
X112441937Y-63952123D01*
X112441937Y-64005998D01*
X112415000Y-64086810D01*
X112199500Y-64302309D01*
X111633815Y-63736624D01*
X111822377Y-63548062D01*
X111903189Y-63521125D01*
X111957064Y-63521125D01*
X112037876Y-63548062D01*
X112091751Y-63601937D01*
X112118688Y-63682749D01*
X112118688Y-63736624D01*
X112091751Y-63817436D01*
X111903189Y-64005998D01*
X112199500Y-63170938D02*
X112657436Y-63628874D01*
X112738248Y-63655812D01*
X112792123Y-63655812D01*
X112872935Y-63628874D01*
X112980685Y-63521125D01*
X113007622Y-63440312D01*
X113007622Y-63386438D01*
X112980685Y-63305625D01*
X112522749Y-62847690D01*
X113303934Y-63144001D02*
X113411683Y-63090126D01*
X113546370Y-62955439D01*
X113573308Y-62874627D01*
X113573308Y-62820752D01*
X113546370Y-62739940D01*
X113492496Y-62686065D01*
X113411683Y-62659128D01*
X113357809Y-62659128D01*
X113276996Y-62686065D01*
X113142309Y-62766877D01*
X113061497Y-62793815D01*
X113007622Y-62793815D01*
X112926810Y-62766877D01*
X112872935Y-62713003D01*
X112845998Y-62632190D01*
X112845998Y-62578316D01*
X112872935Y-62497503D01*
X113007622Y-62362816D01*
X113115372Y-62308942D01*
X111704722Y-109755592D02*
X111623910Y-109782529D01*
X111543097Y-109863341D01*
X111489223Y-109971091D01*
X111489223Y-110078841D01*
X111516160Y-110159653D01*
X111596972Y-110294340D01*
X111677784Y-110375152D01*
X111812471Y-110455964D01*
X111893284Y-110482902D01*
X112001033Y-110482902D01*
X112108783Y-110429027D01*
X112162658Y-110375152D01*
X112216532Y-110267402D01*
X112216532Y-110213528D01*
X112027971Y-110024966D01*
X111920221Y-110132715D01*
X112512844Y-110024966D02*
X111947158Y-109459280D01*
X112162658Y-109243781D01*
X112243470Y-109216844D01*
X112297345Y-109216844D01*
X112378157Y-109243781D01*
X112458969Y-109324593D01*
X112485906Y-109405406D01*
X112485906Y-109459280D01*
X112458969Y-109540093D01*
X112243470Y-109755592D01*
X113374841Y-109162969D02*
X113051592Y-109486218D01*
X113213216Y-109324593D02*
X112647531Y-108758908D01*
X112674468Y-108893595D01*
X112674468Y-109001345D01*
X112647531Y-109082157D01*
X112997717Y-108408722D02*
X113374841Y-108031598D01*
X113698089Y-108839720D01*
X111704722Y-97065592D02*
X111623910Y-97092529D01*
X111543097Y-97173341D01*
X111489223Y-97281091D01*
X111489223Y-97388841D01*
X111516160Y-97469653D01*
X111596972Y-97604340D01*
X111677784Y-97685152D01*
X111812471Y-97765964D01*
X111893284Y-97792902D01*
X112001033Y-97792902D01*
X112108783Y-97739027D01*
X112162658Y-97685152D01*
X112216532Y-97577402D01*
X112216532Y-97523528D01*
X112027971Y-97334966D01*
X111920221Y-97442715D01*
X112512844Y-97334966D02*
X111947158Y-96769280D01*
X112162658Y-96553781D01*
X112243470Y-96526844D01*
X112297345Y-96526844D01*
X112378157Y-96553781D01*
X112458969Y-96634593D01*
X112485906Y-96715406D01*
X112485906Y-96769280D01*
X112458969Y-96850093D01*
X112243470Y-97065592D01*
X112539781Y-96284407D02*
X112539781Y-96230532D01*
X112566719Y-96149720D01*
X112701406Y-96015033D01*
X112782218Y-95988096D01*
X112836093Y-95988096D01*
X112916905Y-96015033D01*
X112970780Y-96068908D01*
X113024654Y-96176658D01*
X113024654Y-96823155D01*
X113374841Y-96472969D01*
X113913589Y-95934221D02*
X113590340Y-96257470D01*
X113751964Y-96095845D02*
X113186279Y-95530160D01*
X113213216Y-95664847D01*
X113213216Y-95772597D01*
X113186279Y-95853409D01*
X111704722Y-86895592D02*
X111623910Y-86922529D01*
X111543097Y-87003341D01*
X111489223Y-87111091D01*
X111489223Y-87218841D01*
X111516160Y-87299653D01*
X111596972Y-87434340D01*
X111677784Y-87515152D01*
X111812471Y-87595964D01*
X111893284Y-87622902D01*
X112001033Y-87622902D01*
X112108783Y-87569027D01*
X112162658Y-87515152D01*
X112216532Y-87407402D01*
X112216532Y-87353528D01*
X112027971Y-87164966D01*
X111920221Y-87272715D01*
X112512844Y-87164966D02*
X111947158Y-86599280D01*
X112162658Y-86383781D01*
X112243470Y-86356844D01*
X112297345Y-86356844D01*
X112378157Y-86383781D01*
X112458969Y-86464593D01*
X112485906Y-86545406D01*
X112485906Y-86599280D01*
X112458969Y-86680093D01*
X112243470Y-86895592D01*
X112539781Y-86114407D02*
X112539781Y-86060532D01*
X112566719Y-85979720D01*
X112701406Y-85845033D01*
X112782218Y-85818096D01*
X112836093Y-85818096D01*
X112916905Y-85845033D01*
X112970780Y-85898908D01*
X113024654Y-86006658D01*
X113024654Y-86653155D01*
X113374841Y-86302969D01*
X113294028Y-85252410D02*
X113186279Y-85360160D01*
X113159341Y-85440972D01*
X113159341Y-85494847D01*
X113186279Y-85629534D01*
X113267091Y-85764221D01*
X113482590Y-85979720D01*
X113563402Y-86006658D01*
X113617277Y-86006658D01*
X113698089Y-85979720D01*
X113805839Y-85871971D01*
X113832776Y-85791158D01*
X113832776Y-85737284D01*
X113805839Y-85656471D01*
X113671152Y-85521784D01*
X113590340Y-85494847D01*
X113536465Y-85494847D01*
X113455653Y-85521784D01*
X113347903Y-85629534D01*
X113320966Y-85710346D01*
X113320966Y-85764221D01*
X113347903Y-85845033D01*
X111704722Y-84365592D02*
X111623910Y-84392529D01*
X111543097Y-84473341D01*
X111489223Y-84581091D01*
X111489223Y-84688841D01*
X111516160Y-84769653D01*
X111596972Y-84904340D01*
X111677784Y-84985152D01*
X111812471Y-85065964D01*
X111893284Y-85092902D01*
X112001033Y-85092902D01*
X112108783Y-85039027D01*
X112162658Y-84985152D01*
X112216532Y-84877402D01*
X112216532Y-84823528D01*
X112027971Y-84634966D01*
X111920221Y-84742715D01*
X112512844Y-84634966D02*
X111947158Y-84069280D01*
X112162658Y-83853781D01*
X112243470Y-83826844D01*
X112297345Y-83826844D01*
X112378157Y-83853781D01*
X112458969Y-83934593D01*
X112485906Y-84015406D01*
X112485906Y-84069280D01*
X112458969Y-84150093D01*
X112243470Y-84365592D01*
X112539781Y-83584407D02*
X112539781Y-83530532D01*
X112566719Y-83449720D01*
X112701406Y-83315033D01*
X112782218Y-83288096D01*
X112836093Y-83288096D01*
X112916905Y-83315033D01*
X112970780Y-83368908D01*
X113024654Y-83476658D01*
X113024654Y-84123155D01*
X113374841Y-83772969D01*
X112997717Y-83018722D02*
X113374841Y-82641598D01*
X113698089Y-83449720D01*
X112201158Y-94273155D02*
X112120346Y-94300093D01*
X112039534Y-94380905D01*
X111985659Y-94488654D01*
X111985659Y-94596404D01*
X112012597Y-94677216D01*
X112093409Y-94811903D01*
X112174221Y-94892715D01*
X112308908Y-94973528D01*
X112389720Y-95000465D01*
X112497470Y-95000465D01*
X112605219Y-94946590D01*
X112659094Y-94892715D01*
X112712969Y-94784966D01*
X112712969Y-94731091D01*
X112524407Y-94542529D01*
X112416658Y-94650279D01*
X113009280Y-94542529D02*
X112443595Y-93976844D01*
X113332529Y-94219280D01*
X112766844Y-93653595D01*
X113601903Y-93949906D02*
X113036218Y-93384221D01*
X113170905Y-93249534D01*
X113278654Y-93195659D01*
X113386404Y-93195659D01*
X113467216Y-93222597D01*
X113601903Y-93303409D01*
X113682715Y-93384221D01*
X113763528Y-93518908D01*
X113790465Y-93599720D01*
X113790465Y-93707470D01*
X113736590Y-93815219D01*
X113601903Y-93949906D01*
X112201158Y-106973155D02*
X112120346Y-107000093D01*
X112039534Y-107080905D01*
X111985659Y-107188654D01*
X111985659Y-107296404D01*
X112012597Y-107377216D01*
X112093409Y-107511903D01*
X112174221Y-107592715D01*
X112308908Y-107673528D01*
X112389720Y-107700465D01*
X112497470Y-107700465D01*
X112605219Y-107646590D01*
X112659094Y-107592715D01*
X112712969Y-107484966D01*
X112712969Y-107431091D01*
X112524407Y-107242529D01*
X112416658Y-107350279D01*
X113009280Y-107242529D02*
X112443595Y-106676844D01*
X113332529Y-106919280D01*
X112766844Y-106353595D01*
X113601903Y-106649906D02*
X113036218Y-106084221D01*
X113170905Y-105949534D01*
X113278654Y-105895659D01*
X113386404Y-105895659D01*
X113467216Y-105922597D01*
X113601903Y-106003409D01*
X113682715Y-106084221D01*
X113763528Y-106218908D01*
X113790465Y-106299720D01*
X113790465Y-106407470D01*
X113736590Y-106515219D01*
X113601903Y-106649906D01*
X112553375Y-89718435D02*
X112095439Y-89637622D01*
X112230126Y-90041683D02*
X111664441Y-89475998D01*
X111879940Y-89260499D01*
X111960752Y-89233561D01*
X112014627Y-89233561D01*
X112095439Y-89260499D01*
X112176251Y-89341311D01*
X112203189Y-89422123D01*
X112203189Y-89475998D01*
X112176251Y-89556810D01*
X111960752Y-89772309D01*
X112230126Y-88910312D02*
X112688062Y-89368248D01*
X112768874Y-89395186D01*
X112822749Y-89395186D01*
X112903561Y-89368248D01*
X113011311Y-89260499D01*
X113038248Y-89179687D01*
X113038248Y-89125812D01*
X113011311Y-89045000D01*
X112553375Y-88587064D01*
X113388435Y-88883375D02*
X112822749Y-88317690D01*
X113711683Y-88560126D01*
X113145998Y-87994441D01*
X111758597Y-82515964D02*
X112027971Y-82246590D01*
X111866346Y-82731463D02*
X111489223Y-81977216D01*
X112243470Y-82354340D01*
X112189595Y-81330719D02*
X112108783Y-81357656D01*
X112027971Y-81438468D01*
X111974096Y-81546218D01*
X111974096Y-81653967D01*
X112001033Y-81734780D01*
X112081845Y-81869467D01*
X112162658Y-81950279D01*
X112297345Y-82031091D01*
X112378157Y-82058028D01*
X112485906Y-82058028D01*
X112593656Y-82004154D01*
X112647531Y-81950279D01*
X112701406Y-81842529D01*
X112701406Y-81788654D01*
X112512844Y-81600093D01*
X112405094Y-81707842D01*
X112997717Y-81600093D02*
X112432032Y-81034407D01*
X113320966Y-81276844D01*
X112755280Y-80711158D01*
X113590340Y-81007470D02*
X113024654Y-80441784D01*
X113159341Y-80307097D01*
X113267091Y-80253223D01*
X113374841Y-80253223D01*
X113455653Y-80280160D01*
X113590340Y-80360972D01*
X113671152Y-80441784D01*
X113751964Y-80576471D01*
X113778902Y-80657284D01*
X113778902Y-80765033D01*
X113725027Y-80872783D01*
X113590340Y-81007470D01*
X111804847Y-74265592D02*
X112155033Y-73915406D01*
X112181971Y-74319467D01*
X112262783Y-74238654D01*
X112343595Y-74211717D01*
X112397470Y-74211717D01*
X112478282Y-74238654D01*
X112612969Y-74373341D01*
X112639906Y-74454154D01*
X112639906Y-74508028D01*
X112612969Y-74588841D01*
X112451345Y-74750465D01*
X112370532Y-74777402D01*
X112316658Y-74777402D01*
X112316658Y-73753781D02*
X113070905Y-74130905D01*
X112693781Y-73376658D01*
X112828468Y-73241971D02*
X113178654Y-72891784D01*
X113205592Y-73295845D01*
X113286404Y-73215033D01*
X113367216Y-73188096D01*
X113421091Y-73188096D01*
X113501903Y-73215033D01*
X113636590Y-73349720D01*
X113663528Y-73430532D01*
X113663528Y-73484407D01*
X113636590Y-73565219D01*
X113474966Y-73726844D01*
X113394154Y-73753781D01*
X113340279Y-73753781D01*
%TO.C,RF1*%
X107452380Y-89595238D02*
X106976190Y-89928571D01*
X107452380Y-90166666D02*
X106452380Y-90166666D01*
X106452380Y-89785714D01*
X106500000Y-89690476D01*
X106547619Y-89642857D01*
X106642857Y-89595238D01*
X106785714Y-89595238D01*
X106880952Y-89642857D01*
X106928571Y-89690476D01*
X106976190Y-89785714D01*
X106976190Y-90166666D01*
X106928571Y-88833333D02*
X106928571Y-89166666D01*
X107452380Y-89166666D02*
X106452380Y-89166666D01*
X106452380Y-88690476D01*
X107452380Y-87785714D02*
X107452380Y-88357142D01*
X107452380Y-88071428D02*
X106452380Y-88071428D01*
X106595238Y-88166666D01*
X106690476Y-88261904D01*
X106738095Y-88357142D01*
%TO.C,RE1*%
X120760952Y-122602380D02*
X120427619Y-122126190D01*
X120189523Y-122602380D02*
X120189523Y-121602380D01*
X120570476Y-121602380D01*
X120665714Y-121650000D01*
X120713333Y-121697619D01*
X120760952Y-121792857D01*
X120760952Y-121935714D01*
X120713333Y-122030952D01*
X120665714Y-122078571D01*
X120570476Y-122126190D01*
X120189523Y-122126190D01*
X121189523Y-122078571D02*
X121522857Y-122078571D01*
X121665714Y-122602380D02*
X121189523Y-122602380D01*
X121189523Y-121602380D01*
X121665714Y-121602380D01*
X122618095Y-122602380D02*
X122046666Y-122602380D01*
X122332380Y-122602380D02*
X122332380Y-121602380D01*
X122237142Y-121745238D01*
X122141904Y-121840476D01*
X122046666Y-121888095D01*
%TO.C,RC1*%
X120713333Y-117952380D02*
X120380000Y-117476190D01*
X120141904Y-117952380D02*
X120141904Y-116952380D01*
X120522857Y-116952380D01*
X120618095Y-117000000D01*
X120665714Y-117047619D01*
X120713333Y-117142857D01*
X120713333Y-117285714D01*
X120665714Y-117380952D01*
X120618095Y-117428571D01*
X120522857Y-117476190D01*
X120141904Y-117476190D01*
X121713333Y-117857142D02*
X121665714Y-117904761D01*
X121522857Y-117952380D01*
X121427619Y-117952380D01*
X121284761Y-117904761D01*
X121189523Y-117809523D01*
X121141904Y-117714285D01*
X121094285Y-117523809D01*
X121094285Y-117380952D01*
X121141904Y-117190476D01*
X121189523Y-117095238D01*
X121284761Y-117000000D01*
X121427619Y-116952380D01*
X121522857Y-116952380D01*
X121665714Y-117000000D01*
X121713333Y-117047619D01*
X122665714Y-117952380D02*
X122094285Y-117952380D01*
X122380000Y-117952380D02*
X122380000Y-116952380D01*
X122284761Y-117095238D01*
X122189523Y-117190476D01*
X122094285Y-117238095D01*
%TO.C,R2*%
X102202380Y-115296666D02*
X101726190Y-115630000D01*
X102202380Y-115868095D02*
X101202380Y-115868095D01*
X101202380Y-115487142D01*
X101250000Y-115391904D01*
X101297619Y-115344285D01*
X101392857Y-115296666D01*
X101535714Y-115296666D01*
X101630952Y-115344285D01*
X101678571Y-115391904D01*
X101726190Y-115487142D01*
X101726190Y-115868095D01*
X101297619Y-114915714D02*
X101250000Y-114868095D01*
X101202380Y-114772857D01*
X101202380Y-114534761D01*
X101250000Y-114439523D01*
X101297619Y-114391904D01*
X101392857Y-114344285D01*
X101488095Y-114344285D01*
X101630952Y-114391904D01*
X102202380Y-114963333D01*
X102202380Y-114344285D01*
%TO.C,R1*%
X107452380Y-115296666D02*
X106976190Y-115630000D01*
X107452380Y-115868095D02*
X106452380Y-115868095D01*
X106452380Y-115487142D01*
X106500000Y-115391904D01*
X106547619Y-115344285D01*
X106642857Y-115296666D01*
X106785714Y-115296666D01*
X106880952Y-115344285D01*
X106928571Y-115391904D01*
X106976190Y-115487142D01*
X106976190Y-115868095D01*
X107452380Y-114344285D02*
X107452380Y-114915714D01*
X107452380Y-114630000D02*
X106452380Y-114630000D01*
X106595238Y-114725238D01*
X106690476Y-114820476D01*
X106738095Y-114915714D01*
%TO.C,Q1*%
X131837619Y-119595238D02*
X131790000Y-119690476D01*
X131694761Y-119785714D01*
X131551904Y-119928571D01*
X131504285Y-120023809D01*
X131504285Y-120119047D01*
X131742380Y-120071428D02*
X131694761Y-120166666D01*
X131599523Y-120261904D01*
X131409047Y-120309523D01*
X131075714Y-120309523D01*
X130885238Y-120261904D01*
X130790000Y-120166666D01*
X130742380Y-120071428D01*
X130742380Y-119880952D01*
X130790000Y-119785714D01*
X130885238Y-119690476D01*
X131075714Y-119642857D01*
X131409047Y-119642857D01*
X131599523Y-119690476D01*
X131694761Y-119785714D01*
X131742380Y-119880952D01*
X131742380Y-120071428D01*
X131742380Y-118690476D02*
X131742380Y-119261904D01*
X131742380Y-118976190D02*
X130742380Y-118976190D01*
X130885238Y-119071428D01*
X130980476Y-119166666D01*
X131028095Y-119261904D01*
%TO.C,J6*%
X100763809Y-90622380D02*
X100763809Y-89622380D01*
X101192380Y-89717619D02*
X101240000Y-89670000D01*
X101335238Y-89622380D01*
X101573333Y-89622380D01*
X101668571Y-89670000D01*
X101716190Y-89717619D01*
X101763809Y-89812857D01*
X101763809Y-89908095D01*
X101716190Y-90050952D01*
X101144761Y-90622380D01*
X101763809Y-90622380D01*
X102763809Y-90527142D02*
X102716190Y-90574761D01*
X102573333Y-90622380D01*
X102478095Y-90622380D01*
X102335238Y-90574761D01*
X102240000Y-90479523D01*
X102192380Y-90384285D01*
X102144761Y-90193809D01*
X102144761Y-90050952D01*
X102192380Y-89860476D01*
X102240000Y-89765238D01*
X102335238Y-89670000D01*
X102478095Y-89622380D01*
X102573333Y-89622380D01*
X102716190Y-89670000D01*
X102763809Y-89717619D01*
%TO.C,J5*%
X143666666Y-89122380D02*
X143666666Y-89836666D01*
X143619047Y-89979523D01*
X143523809Y-90074761D01*
X143380952Y-90122380D01*
X143285714Y-90122380D01*
X144619047Y-89122380D02*
X144142857Y-89122380D01*
X144095238Y-89598571D01*
X144142857Y-89550952D01*
X144238095Y-89503333D01*
X144476190Y-89503333D01*
X144571428Y-89550952D01*
X144619047Y-89598571D01*
X144666666Y-89693809D01*
X144666666Y-89931904D01*
X144619047Y-90027142D01*
X144571428Y-90074761D01*
X144476190Y-90122380D01*
X144238095Y-90122380D01*
X144142857Y-90074761D01*
X144095238Y-90027142D01*
X147452380Y-104238095D02*
X146452380Y-104238095D01*
X147166666Y-103904761D01*
X146452380Y-103571428D01*
X147452380Y-103571428D01*
X147357142Y-102523809D02*
X147404761Y-102571428D01*
X147452380Y-102714285D01*
X147452380Y-102809523D01*
X147404761Y-102952380D01*
X147309523Y-103047619D01*
X147214285Y-103095238D01*
X147023809Y-103142857D01*
X146880952Y-103142857D01*
X146690476Y-103095238D01*
X146595238Y-103047619D01*
X146500000Y-102952380D01*
X146452380Y-102809523D01*
X146452380Y-102714285D01*
X146500000Y-102571428D01*
X146547619Y-102523809D01*
X147452380Y-102095238D02*
X146452380Y-102095238D01*
X146452380Y-101714285D01*
X146500000Y-101619047D01*
X146547619Y-101571428D01*
X146642857Y-101523809D01*
X146785714Y-101523809D01*
X146880952Y-101571428D01*
X146928571Y-101619047D01*
X146976190Y-101714285D01*
X146976190Y-102095238D01*
X147452380Y-101047619D02*
X147452380Y-100857142D01*
X147404761Y-100761904D01*
X147357142Y-100714285D01*
X147214285Y-100619047D01*
X147023809Y-100571428D01*
X146642857Y-100571428D01*
X146547619Y-100619047D01*
X146500000Y-100666666D01*
X146452380Y-100761904D01*
X146452380Y-100952380D01*
X146500000Y-101047619D01*
X146547619Y-101095238D01*
X146642857Y-101142857D01*
X146880952Y-101142857D01*
X146976190Y-101095238D01*
X147023809Y-101047619D01*
X147071428Y-100952380D01*
X147071428Y-100761904D01*
X147023809Y-100666666D01*
X146976190Y-100619047D01*
X146880952Y-100571428D01*
X146880952Y-100000000D02*
X146833333Y-100095238D01*
X146785714Y-100142857D01*
X146690476Y-100190476D01*
X146642857Y-100190476D01*
X146547619Y-100142857D01*
X146500000Y-100095238D01*
X146452380Y-100000000D01*
X146452380Y-99809523D01*
X146500000Y-99714285D01*
X146547619Y-99666666D01*
X146642857Y-99619047D01*
X146690476Y-99619047D01*
X146785714Y-99666666D01*
X146833333Y-99714285D01*
X146880952Y-99809523D01*
X146880952Y-100000000D01*
X146928571Y-100095238D01*
X146976190Y-100142857D01*
X147071428Y-100190476D01*
X147261904Y-100190476D01*
X147357142Y-100142857D01*
X147404761Y-100095238D01*
X147452380Y-100000000D01*
X147452380Y-99809523D01*
X147404761Y-99714285D01*
X147357142Y-99666666D01*
X147261904Y-99619047D01*
X147071428Y-99619047D01*
X146976190Y-99666666D01*
X146928571Y-99714285D01*
X146880952Y-99809523D01*
X146452380Y-99000000D02*
X146452380Y-98904761D01*
X146500000Y-98809523D01*
X146547619Y-98761904D01*
X146642857Y-98714285D01*
X146833333Y-98666666D01*
X147071428Y-98666666D01*
X147261904Y-98714285D01*
X147357142Y-98761904D01*
X147404761Y-98809523D01*
X147452380Y-98904761D01*
X147452380Y-99000000D01*
X147404761Y-99095238D01*
X147357142Y-99142857D01*
X147261904Y-99190476D01*
X147071428Y-99238095D01*
X146833333Y-99238095D01*
X146642857Y-99190476D01*
X146547619Y-99142857D01*
X146500000Y-99095238D01*
X146452380Y-99000000D01*
X146880952Y-98095238D02*
X146833333Y-98190476D01*
X146785714Y-98238095D01*
X146690476Y-98285714D01*
X146642857Y-98285714D01*
X146547619Y-98238095D01*
X146500000Y-98190476D01*
X146452380Y-98095238D01*
X146452380Y-97904761D01*
X146500000Y-97809523D01*
X146547619Y-97761904D01*
X146642857Y-97714285D01*
X146690476Y-97714285D01*
X146785714Y-97761904D01*
X146833333Y-97809523D01*
X146880952Y-97904761D01*
X146880952Y-98095238D01*
X146928571Y-98190476D01*
X146976190Y-98238095D01*
X147071428Y-98285714D01*
X147261904Y-98285714D01*
X147357142Y-98238095D01*
X147404761Y-98190476D01*
X147452380Y-98095238D01*
X147452380Y-97904761D01*
X147404761Y-97809523D01*
X147357142Y-97761904D01*
X147261904Y-97714285D01*
X147071428Y-97714285D01*
X146976190Y-97761904D01*
X146928571Y-97809523D01*
X146880952Y-97904761D01*
%TO.C,J4*%
X143666666Y-61972380D02*
X143666666Y-62686666D01*
X143619047Y-62829523D01*
X143523809Y-62924761D01*
X143380952Y-62972380D01*
X143285714Y-62972380D01*
X144571428Y-62305714D02*
X144571428Y-62972380D01*
X144333333Y-61924761D02*
X144095238Y-62639047D01*
X144714285Y-62639047D01*
X148404761Y-80095238D02*
X148452380Y-79952380D01*
X148452380Y-79714285D01*
X148404761Y-79619047D01*
X148357142Y-79571428D01*
X148261904Y-79523809D01*
X148166666Y-79523809D01*
X148071428Y-79571428D01*
X148023809Y-79619047D01*
X147976190Y-79714285D01*
X147928571Y-79904761D01*
X147880952Y-80000000D01*
X147833333Y-80047619D01*
X147738095Y-80095238D01*
X147642857Y-80095238D01*
X147547619Y-80047619D01*
X147500000Y-80000000D01*
X147452380Y-79904761D01*
X147452380Y-79666666D01*
X147500000Y-79523809D01*
X148452380Y-79095238D02*
X147452380Y-79095238D01*
X147452380Y-78857142D01*
X147500000Y-78714285D01*
X147595238Y-78619047D01*
X147690476Y-78571428D01*
X147880952Y-78523809D01*
X148023809Y-78523809D01*
X148214285Y-78571428D01*
X148309523Y-78619047D01*
X148404761Y-78714285D01*
X148452380Y-78857142D01*
X148452380Y-79095238D01*
X148547619Y-78333333D02*
X148547619Y-77571428D01*
X148357142Y-76761904D02*
X148404761Y-76809523D01*
X148452380Y-76952380D01*
X148452380Y-77047619D01*
X148404761Y-77190476D01*
X148309523Y-77285714D01*
X148214285Y-77333333D01*
X148023809Y-77380952D01*
X147880952Y-77380952D01*
X147690476Y-77333333D01*
X147595238Y-77285714D01*
X147500000Y-77190476D01*
X147452380Y-77047619D01*
X147452380Y-76952380D01*
X147500000Y-76809523D01*
X147547619Y-76761904D01*
X148166666Y-76380952D02*
X148166666Y-75904761D01*
X148452380Y-76476190D02*
X147452380Y-76142857D01*
X148452380Y-75809523D01*
X148452380Y-74904761D02*
X147976190Y-75238095D01*
X148452380Y-75476190D02*
X147452380Y-75476190D01*
X147452380Y-75095238D01*
X147500000Y-75000000D01*
X147547619Y-74952380D01*
X147642857Y-74904761D01*
X147785714Y-74904761D01*
X147880952Y-74952380D01*
X147928571Y-75000000D01*
X147976190Y-75095238D01*
X147976190Y-75476190D01*
X148452380Y-74476190D02*
X147452380Y-74476190D01*
X147452380Y-74238095D01*
X147500000Y-74095238D01*
X147595238Y-74000000D01*
X147690476Y-73952380D01*
X147880952Y-73904761D01*
X148023809Y-73904761D01*
X148214285Y-73952380D01*
X148309523Y-74000000D01*
X148404761Y-74095238D01*
X148452380Y-74238095D01*
X148452380Y-74476190D01*
%TO.C,J3*%
X99630952Y-74452380D02*
X99630952Y-75261904D01*
X99678571Y-75357142D01*
X99726190Y-75404761D01*
X99821428Y-75452380D01*
X100011904Y-75452380D01*
X100107142Y-75404761D01*
X100154761Y-75357142D01*
X100202380Y-75261904D01*
X100202380Y-74452380D01*
X100630952Y-75404761D02*
X100773809Y-75452380D01*
X101011904Y-75452380D01*
X101107142Y-75404761D01*
X101154761Y-75357142D01*
X101202380Y-75261904D01*
X101202380Y-75166666D01*
X101154761Y-75071428D01*
X101107142Y-75023809D01*
X101011904Y-74976190D01*
X100821428Y-74928571D01*
X100726190Y-74880952D01*
X100678571Y-74833333D01*
X100630952Y-74738095D01*
X100630952Y-74642857D01*
X100678571Y-74547619D01*
X100726190Y-74500000D01*
X100821428Y-74452380D01*
X101059523Y-74452380D01*
X101202380Y-74500000D01*
X101392857Y-75547619D02*
X102154761Y-75547619D01*
X102964285Y-75452380D02*
X102630952Y-74976190D01*
X102392857Y-75452380D02*
X102392857Y-74452380D01*
X102773809Y-74452380D01*
X102869047Y-74500000D01*
X102916666Y-74547619D01*
X102964285Y-74642857D01*
X102964285Y-74785714D01*
X102916666Y-74880952D01*
X102869047Y-74928571D01*
X102773809Y-74976190D01*
X102392857Y-74976190D01*
X103297619Y-74452380D02*
X103964285Y-75452380D01*
X103964285Y-74452380D02*
X103297619Y-75452380D01*
%TO.C,J2*%
X99500000Y-81952380D02*
X99500000Y-82761904D01*
X99547619Y-82857142D01*
X99595238Y-82904761D01*
X99690476Y-82952380D01*
X99880952Y-82952380D01*
X99976190Y-82904761D01*
X100023809Y-82857142D01*
X100071428Y-82761904D01*
X100071428Y-81952380D01*
X100500000Y-82904761D02*
X100642857Y-82952380D01*
X100880952Y-82952380D01*
X100976190Y-82904761D01*
X101023809Y-82857142D01*
X101071428Y-82761904D01*
X101071428Y-82666666D01*
X101023809Y-82571428D01*
X100976190Y-82523809D01*
X100880952Y-82476190D01*
X100690476Y-82428571D01*
X100595238Y-82380952D01*
X100547619Y-82333333D01*
X100500000Y-82238095D01*
X100500000Y-82142857D01*
X100547619Y-82047619D01*
X100595238Y-82000000D01*
X100690476Y-81952380D01*
X100928571Y-81952380D01*
X101071428Y-82000000D01*
X101261904Y-83047619D02*
X102023809Y-83047619D01*
X102119047Y-81952380D02*
X102690476Y-81952380D01*
X102404761Y-82952380D02*
X102404761Y-81952380D01*
X102928571Y-81952380D02*
X103595238Y-82952380D01*
X103595238Y-81952380D02*
X102928571Y-82952380D01*
%TO.C,J1*%
X102952380Y-68333333D02*
X103666666Y-68333333D01*
X103809523Y-68380952D01*
X103904761Y-68476190D01*
X103952380Y-68619047D01*
X103952380Y-68714285D01*
X103952380Y-67333333D02*
X103952380Y-67904761D01*
X103952380Y-67619047D02*
X102952380Y-67619047D01*
X103095238Y-67714285D01*
X103190476Y-67809523D01*
X103238095Y-67904761D01*
X103380952Y-62928571D02*
X103523809Y-62976190D01*
X103571428Y-63023809D01*
X103619047Y-63119047D01*
X103619047Y-63261904D01*
X103571428Y-63357142D01*
X103523809Y-63404761D01*
X103428571Y-63452380D01*
X103047619Y-63452380D01*
X103047619Y-62452380D01*
X103380952Y-62452380D01*
X103476190Y-62500000D01*
X103523809Y-62547619D01*
X103571428Y-62642857D01*
X103571428Y-62738095D01*
X103523809Y-62833333D01*
X103476190Y-62880952D01*
X103380952Y-62928571D01*
X103047619Y-62928571D01*
X104000000Y-63166666D02*
X104476190Y-63166666D01*
X103904761Y-63452380D02*
X104238095Y-62452380D01*
X104571428Y-63452380D01*
X104761904Y-62452380D02*
X105333333Y-62452380D01*
X105047619Y-63452380D02*
X105047619Y-62452380D01*
X105523809Y-62452380D02*
X106095238Y-62452380D01*
X105809523Y-63452380D02*
X105809523Y-62452380D01*
%TO.C,CF2*%
X107357142Y-102595238D02*
X107404761Y-102642857D01*
X107452380Y-102785714D01*
X107452380Y-102880952D01*
X107404761Y-103023809D01*
X107309523Y-103119047D01*
X107214285Y-103166666D01*
X107023809Y-103214285D01*
X106880952Y-103214285D01*
X106690476Y-103166666D01*
X106595238Y-103119047D01*
X106500000Y-103023809D01*
X106452380Y-102880952D01*
X106452380Y-102785714D01*
X106500000Y-102642857D01*
X106547619Y-102595238D01*
X106928571Y-101833333D02*
X106928571Y-102166666D01*
X107452380Y-102166666D02*
X106452380Y-102166666D01*
X106452380Y-101690476D01*
X106547619Y-101357142D02*
X106500000Y-101309523D01*
X106452380Y-101214285D01*
X106452380Y-100976190D01*
X106500000Y-100880952D01*
X106547619Y-100833333D01*
X106642857Y-100785714D01*
X106738095Y-100785714D01*
X106880952Y-100833333D01*
X107452380Y-101404761D01*
X107452380Y-100785714D01*
%TO.C,CF1*%
X102107142Y-102595238D02*
X102154761Y-102642857D01*
X102202380Y-102785714D01*
X102202380Y-102880952D01*
X102154761Y-103023809D01*
X102059523Y-103119047D01*
X101964285Y-103166666D01*
X101773809Y-103214285D01*
X101630952Y-103214285D01*
X101440476Y-103166666D01*
X101345238Y-103119047D01*
X101250000Y-103023809D01*
X101202380Y-102880952D01*
X101202380Y-102785714D01*
X101250000Y-102642857D01*
X101297619Y-102595238D01*
X101678571Y-101833333D02*
X101678571Y-102166666D01*
X102202380Y-102166666D02*
X101202380Y-102166666D01*
X101202380Y-101690476D01*
X102202380Y-100785714D02*
X102202380Y-101357142D01*
X102202380Y-101071428D02*
X101202380Y-101071428D01*
X101345238Y-101166666D01*
X101440476Y-101261904D01*
X101488095Y-101357142D01*
D11*
%TO.C,U1*%
X133208000Y-64942000D02*
X133208000Y-62275000D01*
X136215000Y-67275000D02*
X136215000Y-67675000D01*
X136215000Y-100275000D02*
X136215000Y-100675000D01*
X136215000Y-85075000D02*
X136215000Y-85475000D01*
X136215000Y-77375000D02*
X136215000Y-77775000D01*
X136215000Y-105375000D02*
X136215000Y-105775000D01*
X136215000Y-107875000D02*
X136215000Y-108275000D01*
X136215000Y-72375000D02*
X136215000Y-72775000D01*
X136215000Y-95175000D02*
X136215000Y-95575000D01*
X136215000Y-79975000D02*
X136215000Y-80375000D01*
X136215000Y-110475000D02*
X136215000Y-110875000D01*
X136215000Y-82475000D02*
X136215000Y-82875000D01*
X136215000Y-97775000D02*
X136215000Y-98175000D01*
X136215000Y-92675000D02*
X136215000Y-93075000D01*
X136215000Y-87575000D02*
X136215000Y-87975000D01*
X136215000Y-62275000D02*
X136215000Y-62575000D01*
X136215000Y-90075000D02*
X136215000Y-90475000D01*
X136215000Y-69775000D02*
X136215000Y-70175000D01*
X136215000Y-74875000D02*
X136215000Y-75275000D01*
X136215000Y-64942000D02*
X133208000Y-64942000D01*
X136215000Y-64675000D02*
X136215000Y-65075000D01*
X136215000Y-102875000D02*
X136215000Y-103275000D01*
X115215000Y-62275000D02*
X136215000Y-62275000D01*
X124215000Y-113275000D02*
X124615000Y-113275000D01*
X136215000Y-113275000D02*
X129415000Y-113275000D01*
X122015000Y-113275000D02*
X115215000Y-113275000D01*
X126815000Y-113275000D02*
X127215000Y-113275000D01*
X115215000Y-107875000D02*
X115215000Y-108275000D01*
X115215000Y-102875000D02*
X115215000Y-103275000D01*
X115215000Y-74875000D02*
X115215000Y-75275000D01*
X115215000Y-79975000D02*
X115215000Y-80375000D01*
X115215000Y-85075000D02*
X115215000Y-85475000D01*
X115215000Y-105375000D02*
X115215000Y-105775000D01*
X115215000Y-100275000D02*
X115215000Y-100675000D01*
X115215000Y-67275000D02*
X115215000Y-67675000D01*
X115215000Y-97775000D02*
X115215000Y-98175000D01*
X115215000Y-95175000D02*
X115215000Y-95575000D01*
X115215000Y-69775000D02*
X115215000Y-70175000D01*
X115215000Y-87575000D02*
X115215000Y-87975000D01*
X115215000Y-64675000D02*
X115215000Y-65075000D01*
X115215000Y-82475000D02*
X115215000Y-82875000D01*
X115215000Y-72375000D02*
X115215000Y-72775000D01*
X115215000Y-92675000D02*
X115215000Y-93075000D01*
X115215000Y-90075000D02*
X115215000Y-90475000D01*
X115215000Y-77375000D02*
X115215000Y-77775000D01*
X115215000Y-110475000D02*
X115215000Y-110875000D01*
X115215000Y-62275000D02*
X115215000Y-62575000D01*
%TO.C,RF1*%
X107000000Y-95180000D02*
X107000000Y-94070000D01*
X108920000Y-94070000D02*
X108920000Y-83930000D01*
X105080000Y-94070000D02*
X108920000Y-94070000D01*
X107000000Y-82820000D02*
X107000000Y-83930000D01*
X108920000Y-83930000D02*
X105080000Y-83930000D01*
X105080000Y-83930000D02*
X105080000Y-94070000D01*
%TO.C,RE1*%
X115200000Y-122150000D02*
X116310000Y-122150000D01*
X116310000Y-124070000D02*
X126450000Y-124070000D01*
X116310000Y-120230000D02*
X116310000Y-124070000D01*
X127560000Y-122150000D02*
X126450000Y-122150000D01*
X126450000Y-124070000D02*
X126450000Y-120230000D01*
X126450000Y-120230000D02*
X116310000Y-120230000D01*
%TO.C,RC1*%
X127560000Y-117500000D02*
X126450000Y-117500000D01*
X126450000Y-115580000D02*
X116310000Y-115580000D01*
X126450000Y-119420000D02*
X126450000Y-115580000D01*
X115200000Y-117500000D02*
X116310000Y-117500000D01*
X116310000Y-115580000D02*
X116310000Y-119420000D01*
X116310000Y-119420000D02*
X126450000Y-119420000D01*
%TO.C,R2*%
X101750000Y-108950000D02*
X101750000Y-110060000D01*
X99830000Y-110060000D02*
X99830000Y-120200000D01*
X103670000Y-110060000D02*
X99830000Y-110060000D01*
X101750000Y-121310000D02*
X101750000Y-120200000D01*
X99830000Y-120200000D02*
X103670000Y-120200000D01*
X103670000Y-120200000D02*
X103670000Y-110060000D01*
%TO.C,R1*%
X107000000Y-108950000D02*
X107000000Y-110060000D01*
X105080000Y-110060000D02*
X105080000Y-120200000D01*
X108920000Y-110060000D02*
X105080000Y-110060000D01*
X107000000Y-121310000D02*
X107000000Y-120200000D01*
X105080000Y-120200000D02*
X108920000Y-120200000D01*
X108920000Y-120200000D02*
X108920000Y-110060000D01*
%TO.C,Q1*%
X132249999Y-119500000D02*
G75*
G03*
X136688478Y-121338478I2600001J0D01*
G01*
X136688478Y-117661522D02*
G75*
G03*
X132250000Y-119500000I-1838478J-1838478D01*
G01*
X136700000Y-121300000D02*
X136700000Y-117700000D01*
%TO.C,J6*%
X100420000Y-92575000D02*
X100420000Y-91245000D01*
X100420000Y-96445000D02*
X103080000Y-96445000D01*
X100420000Y-93845000D02*
X100420000Y-96445000D01*
X100420000Y-93845000D02*
X103080000Y-93845000D01*
X100420000Y-91245000D02*
X101750000Y-91245000D01*
X103080000Y-93845000D02*
X103080000Y-96445000D01*
%TO.C,J5*%
X142670000Y-90670000D02*
X144000000Y-90670000D01*
X145330000Y-93270000D02*
X145330000Y-111110000D01*
X142670000Y-92000000D02*
X142670000Y-90670000D01*
X142670000Y-93270000D02*
X142670000Y-111110000D01*
X142670000Y-111110000D02*
X145330000Y-111110000D01*
X142670000Y-93270000D02*
X145330000Y-93270000D01*
%TO.C,J4*%
X142670000Y-64850000D02*
X142670000Y-63520000D01*
X142670000Y-66120000D02*
X142670000Y-86500000D01*
X145330000Y-66120000D02*
X145330000Y-86500000D01*
X142670000Y-66120000D02*
X145330000Y-66120000D01*
X142670000Y-86500000D02*
X145330000Y-86500000D01*
X142670000Y-63520000D02*
X144000000Y-63520000D01*
%TO.C,J3*%
X100420000Y-78555000D02*
X100420000Y-75955000D01*
X103080000Y-81155000D02*
X101750000Y-81155000D01*
X103080000Y-78555000D02*
X100420000Y-78555000D01*
X103080000Y-78555000D02*
X103080000Y-75955000D01*
X103080000Y-75955000D02*
X100420000Y-75955000D01*
X103080000Y-79825000D02*
X103080000Y-81155000D01*
%TO.C,J2*%
X103080000Y-87475000D02*
X103080000Y-88805000D01*
X103080000Y-83605000D02*
X100420000Y-83605000D01*
X103080000Y-86205000D02*
X103080000Y-83605000D01*
X103080000Y-86205000D02*
X100420000Y-86205000D01*
X103080000Y-88805000D02*
X101750000Y-88805000D01*
X100420000Y-86205000D02*
X100420000Y-83605000D01*
%TO.C,J1*%
X101990000Y-66430000D02*
X105410000Y-66430000D01*
X101410000Y-65360000D02*
X106410000Y-65360000D01*
X105410000Y-70640000D02*
X105410000Y-65360000D01*
X108610000Y-65360000D02*
X106410000Y-65360000D01*
X101910000Y-66750000D02*
X101990000Y-66430000D01*
X105410000Y-66430000D02*
X105410000Y-66750000D01*
X106410000Y-68080000D02*
X106410000Y-67920000D01*
X108500000Y-69250000D02*
X109100000Y-69550000D01*
X100190000Y-64140000D02*
X108610000Y-64140000D01*
X101410000Y-70640000D02*
X106410000Y-70640000D01*
X101410000Y-71860000D02*
X101410000Y-70640000D01*
X105410000Y-69250000D02*
X105410000Y-69570000D01*
X109100000Y-69550000D02*
X109100000Y-68950000D01*
X105410000Y-69570000D02*
X101990000Y-69570000D01*
X109100000Y-68950000D02*
X108500000Y-69250000D01*
X101910000Y-69250000D02*
X101990000Y-68930000D01*
X108610000Y-70640000D02*
X108610000Y-71860000D01*
X105410000Y-66750000D02*
X105410000Y-67070000D01*
X108610000Y-64140000D02*
X108610000Y-65360000D01*
X100190000Y-71860000D02*
X100190000Y-64140000D01*
X101990000Y-67070000D02*
X101910000Y-66750000D01*
X101990000Y-69570000D02*
X101910000Y-69250000D01*
X108610000Y-71860000D02*
X100190000Y-71860000D01*
X105410000Y-68930000D02*
X105410000Y-69250000D01*
X106410000Y-65360000D02*
X106410000Y-64140000D01*
X106410000Y-70640000D02*
X106410000Y-71860000D01*
X101990000Y-68930000D02*
X105410000Y-68930000D01*
X101410000Y-64140000D02*
X101410000Y-65360000D01*
X106410000Y-70640000D02*
X108610000Y-70640000D01*
X105410000Y-67070000D02*
X101990000Y-67070000D01*
%TO.C,CF2*%
X108370000Y-99530000D02*
X108370000Y-104470000D01*
X108370000Y-99530000D02*
X108055000Y-99530000D01*
X105945000Y-104470000D02*
X105630000Y-104470000D01*
X108370000Y-104470000D02*
X108055000Y-104470000D01*
X105630000Y-99530000D02*
X105630000Y-104470000D01*
X105945000Y-99530000D02*
X105630000Y-99530000D01*
%TO.C,CF1*%
X100380000Y-104470000D02*
X100380000Y-99530000D01*
X100380000Y-104470000D02*
X100695000Y-104470000D01*
X102805000Y-99530000D02*
X103120000Y-99530000D01*
X100380000Y-99530000D02*
X100695000Y-99530000D01*
X103120000Y-104470000D02*
X103120000Y-99530000D01*
X102805000Y-104470000D02*
X103120000Y-104470000D01*
%TD*%
M02*
