M48
; DRILL file {KiCad (6.0.7)} date Fri Mar 31 20:18:16 2023
; FORMAT={-:-/ absolute / inch / decimal}
; #@! TF.CreationDate,2023-03-31T20:18:16-04:00
; #@! TF.GenerationSoftware,Kicad,Pcbnew,(6.0.7)
; #@! TF.FileFunction,Plated,1,2,PTH
FMAT,2
INCH
; #@! TA.AperFunction,Plated,PTH,ComponentDrill
T1C0.0295
; #@! TA.AperFunction,Plated,PTH,ComponentDrill
T2C0.0315
; #@! TA.AperFunction,Plated,PTH,ComponentDrill
T3C0.0394
; #@! TA.AperFunction,Plated,PTH,ComponentDrill
T4C0.0402
; #@! TA.AperFunction,Plated,PTH,ComponentDrill
T5C0.0472
%
G90
G05
T1
X5.3091Y-4.6547
X5.3091Y-4.7047
X5.3091Y-4.7547
T2
X4.0059Y-3.9173
X4.0059Y-4.1142
X4.2126Y-3.9173
X4.2126Y-4.1142
T3
X4.0059Y-3.0427
X4.0059Y-3.1427
X4.0059Y-3.3439
X4.0059Y-3.4439
X4.0059Y-3.6447
X4.0059Y-3.7447
X4.2126Y-2.628
X4.2126Y-2.7264
X5.6693Y-2.5531
X5.6693Y-2.6531
X5.6693Y-2.7531
X5.6693Y-2.8531
X5.6693Y-2.9531
X5.6693Y-3.0531
X5.6693Y-3.1531
X5.6693Y-3.2531
X5.6693Y-3.3531
X5.6693Y-3.622
X5.6693Y-3.722
X5.6693Y-3.822
X5.6693Y-3.922
X5.6693Y-4.022
X5.6693Y-4.122
X5.6693Y-4.222
X5.6693Y-4.322
T4
X4.5994Y-2.5057
X4.5994Y-2.6057
X4.5994Y-2.7057
X4.5994Y-2.8057
X4.5994Y-2.9057
X4.5994Y-3.0057
X4.5994Y-3.1057
X4.5994Y-3.2057
X4.5994Y-3.3057
X4.5994Y-3.4057
X4.5994Y-3.5057
X4.5994Y-3.6057
X4.5994Y-3.7057
X4.5994Y-3.8057
X4.5994Y-3.9057
X4.5994Y-4.0057
X4.5994Y-4.1057
X4.5994Y-4.2057
X4.5994Y-4.3057
X4.5994Y-4.4057
X4.8494Y-4.3967
X4.9494Y-4.3967
X5.0494Y-4.3967
X5.2994Y-2.5057
X5.2994Y-2.6057
X5.2994Y-2.7057
X5.2994Y-2.8057
X5.2994Y-2.9057
X5.2994Y-3.0057
X5.2994Y-3.1057
X5.2994Y-3.2057
X5.2994Y-3.3057
X5.2994Y-3.4057
X5.2994Y-3.5057
X5.2994Y-3.6057
X5.2994Y-3.7057
X5.2994Y-3.8057
X5.2994Y-3.9057
X5.2994Y-4.0057
X5.2994Y-4.1057
X5.2994Y-4.2057
X5.2994Y-4.3057
X5.2994Y-4.4057
T5
X4.0059Y-4.2327
X4.0059Y-4.8327
X4.2126Y-3.2039
X4.2126Y-3.8039
X4.2126Y-4.2327
X4.2126Y-4.8327
X4.4787Y-4.626
X4.4787Y-4.8091
X5.0787Y-4.626
X5.0787Y-4.8091
T0
M30
